<?xml version="1.0" standalone="no"?>
<!DOCTYPE svg PUBLIC "-//W3C//DTD SVG 20010904//EN"
 "http://www.w3.org/TR/2001/REC-SVG-20010904/DTD/svg10.dtd">
<svg version="1.0" xmlns="http://www.w3.org/2000/svg"
 width="512.000000pt" height="512.000000pt" viewBox="0 0 512.000000 512.000000"
 preserveAspectRatio="xMidYMid meet">

<g transform="translate(0.000000,512.000000) scale(0.100000,-0.100000)"
fill="#000000" stroke="none">
<path d="M3329 4954 c-43 -8 -64 -42 -103 -166 -47 -152 -46 -152 -206 -73
-94 47 -123 57 -146 51 -37 -10 -190 -163 -200 -200 -6 -23 4 -52 51 -146 79
-160 79 -159 -73 -206 -73 -23 -126 -45 -142 -60 -24 -24 -25 -29 -25 -154 0
-125 1 -130 25 -154 16 -15 69 -37 142 -60 152 -47 152 -46 73 -206 -47 -94
-57 -123 -51 -146 10 -37 163 -190 200 -200 23 -6 52 4 146 51 160 79 159 79
206 -73 23 -73 45 -126 60 -142 24 -24 29 -25 154 -25 125 0 130 1 154 25 15
16 37 69 60 142 47 151 48 152 208 72 93 -46 120 -56 143 -50 38 10 191 163
201 200 6 23 -4 52 -51 146 -79 160 -79 159 73 206 74 23 126 45 142 60 24 24
25 29 25 154 0 125 -1 130 -25 154 -16 15 -68 37 -142 60 -152 47 -152 46 -73
206 47 94 57 123 51 146 -10 37 -163 190 -201 200 -23 6 -50 -4 -143 -50 -160
-80 -161 -79 -208 72 -50 161 -54 165 -191 168 -59 1 -120 0 -134 -2z m189
-269 c18 -60 41 -117 50 -127 9 -9 53 -30 97 -48 l79 -31 113 55 c94 46 117
54 132 44 45 -28 44 -41 -15 -161 l-55 -113 31 -79 c18 -44 39 -88 48 -97 10
-9 67 -32 127 -50 l110 -34 0 -44 0 -44 -110 -34 c-60 -18 -117 -41 -127 -50
-9 -9 -30 -53 -48 -97 l-31 -79 55 -113 c46 -94 54 -117 44 -132 -28 -45 -41
-44 -161 15 l-113 55 -79 -31 c-44 -18 -88 -39 -97 -48 -9 -10 -32 -66 -50
-127 l-34 -110 -44 0 -44 0 -34 110 c-18 61 -41 117 -50 127 -9 9 -53 30 -97
48 l-79 31 -113 -55 c-120 -59 -133 -60 -161 -15 -10 15 -2 38 44 132 l55 113
-31 79 c-18 44 -39 88 -48 97 -10 9 -66 32 -127 51 l-110 34 0 43 0 43 110 34
c61 19 117 42 127 51 9 9 30 53 48 97 l31 79 -55 113 c-59 120 -60 133 -15
161 15 10 38 2 132 -44 l113 -55 79 31 c44 18 88 39 97 48 9 10 31 64 49 122
17 58 34 109 36 113 3 4 23 7 46 5 l41 -3 34 -110z"/>
<path d="M3346 4390 c-63 -16 -153 -70 -197 -117 -22 -24 -55 -74 -72 -111
-29 -61 -32 -76 -32 -163 0 -90 2 -99 37 -171 45 -91 103 -147 196 -191 61
-29 76 -32 162 -32 86 0 101 3 162 32 93 44 151 100 196 191 35 72 37 81 37
172 0 91 -2 100 -37 172 -68 136 -188 217 -336 224 -42 2 -94 -1 -116 -6z
m168 -162 c86 -26 166 -136 166 -228 0 -124 -116 -240 -240 -240 -63 0 -114
23 -165 75 -102 101 -102 229 0 330 70 71 145 90 239 63z"/>
<path d="M4430 4782 c-18 -15 -29 -53 -65 -230 -23 -117 -39 -214 -36 -217 13
-7 141 -28 146 -24 3 3 13 47 24 98 10 50 21 94 24 97 3 3 18 -30 35 -73 143
-375 96 -778 -130 -1111 -27 -41 -48 -75 -46 -76 2 -1 29 -24 62 -49 l58 -47
18 22 c115 148 214 368 256 573 22 109 26 373 6 480 -16 85 -65 248 -97 321
-16 35 -20 54 -12 54 7 -1 51 -9 100 -19 48 -10 89 -16 91 -12 8 14 28 142 23
147 -6 7 -393 84 -418 84 -9 0 -27 -8 -39 -18z"/>
<path d="M1837 4002 c-26 -26 -47 -52 -47 -57 0 -5 21 -31 47 -57 l47 -48
-111 0 c-480 0 -943 -162 -1317 -460 -92 -73 -286 -266 -286 -284 0 -7 26 -33
57 -59 l58 -47 72 78 c39 43 109 110 155 149 352 298 800 463 1259 463 54 0
99 -4 99 -8 0 -4 -18 -26 -40 -47 -22 -21 -40 -43 -40 -48 0 -11 96 -107 108
-107 4 0 65 58 135 128 112 113 127 133 127 162 0 29 -15 49 -127 162 -70 70
-132 128 -138 128 -6 0 -32 -22 -58 -48z"/>
<path d="M1629 3354 c-43 -8 -65 -43 -84 -129 -9 -44 -23 -110 -31 -147 l-15
-66 -71 -18 -71 -17 -35 39 c-148 164 -179 194 -206 194 -40 0 -213 -91 -273
-144 -33 -28 -29 -61 22 -216 l44 -135 -51 -52 -51 -51 -46 14 c-25 7 -86 27
-135 44 -120 40 -147 40 -184 -6 -43 -52 -132 -227 -132 -259 0 -28 28 -57
194 -207 l39 -35 -17 -71 -18 -71 -66 -15 c-37 -8 -104 -22 -149 -32 -126 -26
-128 -31 -128 -214 0 -183 2 -188 128 -214 45 -10 112 -24 149 -32 l66 -15 18
-71 17 -71 -39 -35 c-164 -148 -194 -179 -194 -206 0 -48 121 -265 159 -286
31 -16 61 -12 157 20 49 17 110 37 135 44 l46 14 51 -51 51 -52 -44 -135 c-45
-135 -51 -164 -39 -195 15 -37 239 -165 290 -165 27 0 58 30 206 194 l35 39
71 -17 71 -18 15 -66 c8 -37 22 -104 32 -149 26 -126 31 -128 214 -128 183 0
188 2 214 128 10 45 24 112 32 149 l15 66 71 18 71 17 35 -39 c150 -166 179
-194 207 -194 35 0 218 95 262 136 43 41 43 59 -12 224 l-44 135 51 52 51 51
46 -14 c25 -7 86 -27 135 -44 117 -39 140 -39 180 3 41 44 136 227 136 262 0
30 -17 49 -154 171 l-79 71 18 71 c9 40 19 72 21 72 2 0 67 14 146 31 199 43
193 36 193 229 0 193 6 186 -193 229 -79 17 -144 31 -146 31 -2 0 -12 32 -21
72 l-18 71 79 71 c135 121 154 142 154 170 0 40 -91 213 -144 274 -28 32 -61
28 -216 -23 l-135 -44 -53 52 -52 52 45 135 c55 163 56 183 12 224 -44 41
-227 136 -262 136 -28 0 -57 -28 -207 -194 l-35 -39 -71 17 -71 18 -15 66 c-8
37 -22 104 -32 149 -26 122 -33 127 -192 129 -70 1 -139 0 -153 -2z m219 -300
c18 -82 39 -155 48 -165 9 -10 42 -23 73 -30 31 -6 91 -22 135 -36 43 -13 88
-22 100 -19 18 4 79 66 211 214 10 11 21 9 63 -12 l51 -26 -24 -77 c-14 -43
-33 -105 -45 -137 -11 -33 -20 -70 -20 -82 0 -32 211 -244 243 -244 12 0 84
20 159 44 l137 44 26 -46 c14 -25 24 -49 23 -53 -2 -4 -51 -51 -111 -104 -59
-54 -110 -108 -113 -120 -3 -13 6 -58 19 -101 14 -44 30 -104 36 -135 7 -31
20 -64 29 -73 10 -8 84 -30 165 -48 l147 -32 0 -56 0 -56 -147 -32 c-81 -18
-155 -40 -165 -48 -9 -9 -22 -42 -29 -73 -6 -31 -22 -91 -36 -135 -13 -43 -22
-88 -19 -100 4 -18 66 -79 214 -211 11 -10 9 -21 -12 -63 l-25 -50 -43 13
c-24 7 -86 27 -139 44 -53 17 -106 31 -117 31 -31 0 -242 -213 -242 -244 0
-12 9 -49 20 -82 12 -32 31 -94 45 -137 l24 -77 -51 -26 c-42 -21 -53 -23 -63
-12 -132 148 -193 210 -211 214 -12 3 -57 -6 -100 -19 -44 -14 -104 -30 -135
-36 -31 -7 -64 -20 -73 -29 -8 -10 -30 -84 -48 -165 l-32 -147 -56 0 -56 0
-32 146 c-18 82 -39 155 -48 165 -9 10 -42 23 -73 30 -31 6 -91 22 -135 36
-43 13 -88 22 -100 19 -18 -4 -75 -62 -212 -215 -10 -11 -20 -9 -62 14 l-50
27 24 76 c13 43 32 104 44 136 11 33 20 70 20 82 0 31 -211 244 -242 244 -17
0 -122 -31 -269 -79 -25 -9 -29 -6 -54 41 -23 42 -25 52 -14 62 146 130 210
193 215 211 3 13 -6 58 -19 101 -14 44 -30 104 -36 135 -7 31 -20 64 -30 73
-11 10 -82 31 -165 48 l-146 32 0 56 0 56 146 32 c83 17 154 38 165 48 10 9
23 42 30 73 6 31 22 91 36 135 13 43 22 89 19 101 -3 13 -54 67 -113 120 -60
54 -109 101 -111 104 -1 4 9 28 23 53 l26 46 77 -24 c42 -13 104 -32 136 -44
33 -11 70 -20 82 -20 33 0 244 211 244 244 0 12 -9 49 -20 82 -12 32 -31 94
-44 136 l-24 77 46 26 c25 14 49 24 53 23 4 -2 51 -51 104 -111 54 -59 108
-110 120 -113 13 -3 58 6 101 19 44 14 104 30 135 36 31 7 64 20 73 30 9 10
30 83 48 165 l32 146 56 0 56 0 32 -146z"/>
<path d="M1596 2624 c-350 -63 -639 -356 -701 -709 -104 -600 417 -1125 1013
-1021 479 84 801 540 718 1015 -85 484 -544 803 -1030 715z m379 -178 c113
-36 198 -89 290 -181 91 -91 144 -175 182 -290 23 -71 26 -96 26 -215 0 -119
-3 -144 -26 -215 -38 -115 -91 -199 -182 -290 -91 -91 -175 -144 -290 -182
-71 -23 -96 -26 -215 -26 -119 0 -144 3 -215 26 -114 38 -198 90 -290 182 -91
91 -144 175 -182 290 -23 71 -26 96 -26 215 0 119 3 144 26 215 38 115 91 199
182 290 112 112 235 179 379 205 89 16 251 5 341 -24z"/>
<path d="M4057 2950 c-45 -14 -54 -27 -82 -110 -24 -72 -29 -80 -60 -90 -31
-10 -43 -8 -115 25 -99 45 -108 43 -203 -52 -95 -95 -97 -104 -52 -203 33 -72
35 -84 25 -114 -10 -31 -18 -37 -92 -62 -107 -37 -113 -48 -113 -184 0 -136 6
-147 113 -184 74 -25 82 -31 92 -62 10 -30 8 -42 -25 -114 -45 -99 -43 -108
52 -203 95 -95 104 -97 203 -52 72 33 84 35 114 25 31 -10 37 -18 62 -92 37
-107 48 -113 184 -113 136 0 147 6 184 113 25 74 31 82 62 92 30 10 42 8 114
-25 99 -45 108 -43 203 52 95 95 97 104 52 203 -33 72 -35 84 -25 114 10 31
18 37 92 62 107 37 113 48 113 184 0 138 -7 149 -114 185 -73 24 -81 29 -91
60 -10 31 -8 43 25 115 45 99 43 108 -52 203 -95 95 -104 97 -203 52 -72 -33
-84 -35 -114 -25 -31 10 -37 18 -62 92 -19 54 -36 85 -53 96 -28 19 -188 27
-234 12z m158 -225 c15 -41 33 -79 39 -84 17 -14 138 -63 170 -68 20 -4 49 4
97 28 l69 33 21 -21 21 -21 -32 -70 c-22 -48 -31 -80 -27 -99 5 -31 54 -152
68 -169 5 -6 43 -24 84 -39 69 -25 75 -29 75 -55 0 -26 -6 -30 -75 -55 -41
-15 -79 -33 -84 -39 -14 -17 -63 -138 -68 -170 -4 -20 4 -49 28 -97 l33 -69
-21 -21 -21 -21 -70 32 c-48 22 -80 31 -99 27 -31 -5 -152 -54 -169 -68 -6 -5
-24 -43 -39 -84 -25 -69 -29 -75 -55 -75 -26 0 -30 6 -55 75 -15 41 -33 79
-39 84 -17 14 -138 63 -169 68 -19 4 -51 -5 -99 -27 l-70 -32 -20 20 -20 20
32 70 c22 48 31 80 27 99 -6 32 -54 152 -69 170 -5 6 -43 24 -84 39 -68 24
-74 29 -74 54 0 26 6 30 75 55 41 15 79 33 84 39 14 17 63 138 68 169 4 19 -5
51 -27 99 l-32 70 20 20 20 20 70 -32 c48 -22 80 -31 99 -27 31 5 152 54 169
68 6 5 24 43 39 84 25 69 29 75 55 75 26 0 30 -6 55 -75z"/>
<path d="M4085 2471 c-92 -24 -173 -90 -215 -176 -19 -41 -24 -66 -24 -135 -1
-78 2 -90 33 -148 38 -70 70 -100 145 -140 43 -22 64 -26 136 -26 72 0 93 4
136 26 75 40 107 70 145 140 31 58 34 70 33 148 0 72 -4 93 -26 136 -39 75
-70 107 -137 143 -65 34 -164 49 -226 32z m138 -165 c103 -43 128 -177 48
-257 -65 -65 -157 -65 -222 0 -124 123 13 325 174 257z"/>
</g>
</svg>
