<svg xmlns="http://www.w3.org/2000/svg" xmlns:xlink="http://www.w3.org/1999/xlink" width="80" zoomAndPan="magnify" viewBox="0 0 60 149.999998" height="200" preserveAspectRatio="xMidYMid meet" version="1.0"><defs><clipPath id="f4b3618167"><path d="M 0.5625 71 L 7 71 L 7 79 L 0.5625 79 Z M 0.5625 71 " clip-rule="nonzero"/></clipPath><clipPath id="cf13008a13"><path d="M 52 71 L 59.8125 71 L 59.8125 79 L 52 79 Z M 52 71 " clip-rule="nonzero"/></clipPath><clipPath id="f78678189f"><path d="M 0.5625 95 L 8 95 L 8 103 L 0.5625 103 Z M 0.5625 95 " clip-rule="nonzero"/></clipPath><clipPath id="f9aed8da87"><path d="M 53 95 L 59.8125 95 L 59.8125 103 L 53 103 Z M 53 95 " clip-rule="nonzero"/></clipPath><clipPath id="febb25c86c"><path d="M 0.5625 119 L 8 119 L 8 127 L 0.5625 127 Z M 0.5625 119 " clip-rule="nonzero"/></clipPath><clipPath id="9b1296fadf"><path d="M 53 119 L 59.8125 119 L 59.8125 127 L 53 127 Z M 53 119 " clip-rule="nonzero"/></clipPath><clipPath id="7b6b05df57"><path d="M 0.5625 143 L 8 143 L 8 150 L 0.5625 150 Z M 0.5625 143 " clip-rule="nonzero"/></clipPath><clipPath id="81b83d7a5e"><path d="M 53 143 L 59.8125 143 L 59.8125 150 L 53 150 Z M 53 143 " clip-rule="nonzero"/></clipPath><clipPath id="f2b9e3ad6f"><path d="M 0.5625 47 L 7 47 L 7 55 L 0.5625 55 Z M 0.5625 47 " clip-rule="nonzero"/></clipPath><clipPath id="298b9a6a3f"><path d="M 52 47 L 59.8125 47 L 59.8125 55 L 52 55 Z M 52 47 " clip-rule="nonzero"/></clipPath><clipPath id="d108b64c4c"><path d="M 0.5625 23 L 7 23 L 7 31 L 0.5625 31 Z M 0.5625 23 " clip-rule="nonzero"/></clipPath><clipPath id="f013002321"><path d="M 52 23 L 59.8125 23 L 59.8125 31 L 52 31 Z M 52 23 " clip-rule="nonzero"/></clipPath><clipPath id="baf463e5c0"><path d="M 0.5625 0 L 8 0 L 8 7 L 0.5625 7 Z M 0.5625 0 " clip-rule="nonzero"/></clipPath><clipPath id="f991017b68"><path d="M 52 0 L 59.8125 0 L 59.8125 7 L 52 7 Z M 52 0 " clip-rule="nonzero"/></clipPath><clipPath id="802b2e0cca"><path d="M 0.5625 71 L 7 71 L 7 79 L 0.5625 79 Z M 0.5625 71 " clip-rule="nonzero"/></clipPath><clipPath id="ee28013279"><path d="M 52 71 L 59.8125 71 L 59.8125 79 L 52 79 Z M 52 71 " clip-rule="nonzero"/></clipPath><clipPath id="5ad9d64d49"><path d="M 0.5625 95 L 8 95 L 8 103 L 0.5625 103 Z M 0.5625 95 " clip-rule="nonzero"/></clipPath><clipPath id="2fe1a7169c"><path d="M 53 95 L 59.8125 95 L 59.8125 103 L 53 103 Z M 53 95 " clip-rule="nonzero"/></clipPath><clipPath id="f1b550118d"><path d="M 0.5625 119 L 8 119 L 8 127 L 0.5625 127 Z M 0.5625 119 " clip-rule="nonzero"/></clipPath><clipPath id="94938265d5"><path d="M 53 119 L 59.8125 119 L 59.8125 127 L 53 127 Z M 53 119 " clip-rule="nonzero"/></clipPath><clipPath id="44b7ea41f2"><path d="M 0.5625 143 L 8 143 L 8 150 L 0.5625 150 Z M 0.5625 143 " clip-rule="nonzero"/></clipPath><clipPath id="10e00bed61"><path d="M 53 143 L 59.8125 143 L 59.8125 150 L 53 150 Z M 53 143 " clip-rule="nonzero"/></clipPath><clipPath id="346cd98e6b"><path d="M 0.5625 47 L 7 47 L 7 55 L 0.5625 55 Z M 0.5625 47 " clip-rule="nonzero"/></clipPath><clipPath id="b321d781c2"><path d="M 52 47 L 59.8125 47 L 59.8125 55 L 52 55 Z M 52 47 " clip-rule="nonzero"/></clipPath><clipPath id="5dd77aae4b"><path d="M 0.5625 23 L 7 23 L 7 31 L 0.5625 31 Z M 0.5625 23 " clip-rule="nonzero"/></clipPath><clipPath id="de83f53d45"><path d="M 52 23 L 59.8125 23 L 59.8125 31 L 52 31 Z M 52 23 " clip-rule="nonzero"/></clipPath><clipPath id="8e246378b0"><path d="M 0.5625 0 L 8 0 L 8 7 L 0.5625 7 Z M 0.5625 0 " clip-rule="nonzero"/></clipPath><clipPath id="bec59d02e3"><path d="M 52 0 L 59.8125 0 L 59.8125 7 L 52 7 Z M 52 0 " clip-rule="nonzero"/></clipPath></defs><g clip-path="url(#f4b3618167)"><path fill="#000000" d="M 6.949219 75 C 6.949219 75.421875 6.871094 75.828125 6.707031 76.21875 C 6.546875 76.609375 6.316406 76.953125 6.015625 77.253906 C 5.71875 77.550781 5.375 77.78125 4.984375 77.945312 C 4.59375 78.105469 4.1875 78.1875 3.761719 78.1875 C 3.339844 78.1875 2.933594 78.105469 2.542969 77.945312 C 2.152344 77.78125 1.808594 77.550781 1.511719 77.253906 C 1.210938 76.953125 0.980469 76.609375 0.820312 76.21875 C 0.65625 75.828125 0.578125 75.421875 0.578125 75 C 0.578125 74.578125 0.65625 74.171875 0.820312 73.78125 C 0.980469 73.390625 1.210938 73.046875 1.511719 72.746094 C 1.808594 72.449219 2.152344 72.21875 2.542969 72.054688 C 2.933594 71.894531 3.339844 71.8125 3.761719 71.8125 C 4.1875 71.8125 4.59375 71.894531 4.984375 72.054688 C 5.375 72.21875 5.71875 72.449219 6.015625 72.746094 C 6.316406 73.046875 6.546875 73.390625 6.707031 73.78125 C 6.871094 74.171875 6.949219 74.578125 6.949219 75 Z M 6.949219 75 " fill-opacity="1" fill-rule="nonzero"/></g><path fill="#000000" d="M 24.367188 75 C 24.367188 75.421875 24.285156 75.828125 24.125 76.21875 C 23.960938 76.609375 23.730469 76.953125 23.433594 77.253906 C 23.132812 77.550781 22.789062 77.78125 22.398438 77.945312 C 22.007812 78.105469 21.601562 78.1875 21.179688 78.1875 C 20.757812 78.1875 20.351562 78.105469 19.960938 77.945312 C 19.570312 77.78125 19.226562 77.550781 18.925781 77.253906 C 18.628906 76.953125 18.398438 76.609375 18.234375 76.21875 C 18.074219 75.828125 17.992188 75.421875 17.992188 75 C 17.992188 74.578125 18.074219 74.171875 18.234375 73.78125 C 18.398438 73.390625 18.628906 73.046875 18.925781 72.746094 C 19.226562 72.449219 19.570312 72.21875 19.960938 72.054688 C 20.351562 71.894531 20.757812 71.8125 21.179688 71.8125 C 21.601562 71.8125 22.007812 71.894531 22.398438 72.054688 C 22.789062 72.21875 23.132812 72.449219 23.433594 72.746094 C 23.730469 73.046875 23.960938 73.390625 24.125 73.78125 C 24.285156 74.171875 24.367188 74.578125 24.367188 75 Z M 24.367188 75 " fill-opacity="1" fill-rule="nonzero"/><path fill="#000000" d="M 41.78125 75 C 41.78125 75.421875 41.703125 75.828125 41.539062 76.21875 C 41.378906 76.609375 41.148438 76.953125 40.851562 77.253906 C 40.550781 77.550781 40.207031 77.78125 39.816406 77.945312 C 39.425781 78.105469 39.019531 78.1875 38.597656 78.1875 C 38.175781 78.1875 37.765625 78.105469 37.378906 77.945312 C 36.988281 77.78125 36.640625 77.550781 36.34375 77.253906 C 36.042969 76.953125 35.8125 76.609375 35.652344 76.21875 C 35.492188 75.828125 35.410156 75.421875 35.410156 75 C 35.410156 74.578125 35.492188 74.171875 35.652344 73.78125 C 35.8125 73.390625 36.042969 73.046875 36.34375 72.746094 C 36.640625 72.449219 36.988281 72.21875 37.378906 72.054688 C 37.765625 71.894531 38.175781 71.8125 38.597656 71.8125 C 39.019531 71.8125 39.425781 71.894531 39.816406 72.054688 C 40.207031 72.21875 40.550781 72.449219 40.851562 72.746094 C 41.148438 73.046875 41.378906 73.390625 41.539062 73.78125 C 41.703125 74.171875 41.78125 74.578125 41.78125 75 Z M 41.78125 75 " fill-opacity="1" fill-rule="nonzero"/><g clip-path="url(#cf13008a13)"><path fill="#000000" d="M 59.199219 75 C 59.199219 75.421875 59.117188 75.828125 58.957031 76.21875 C 58.796875 76.609375 58.566406 76.953125 58.265625 77.253906 C 57.96875 77.550781 57.621094 77.78125 57.230469 77.945312 C 56.84375 78.105469 56.433594 78.1875 56.011719 78.1875 C 55.589844 78.1875 55.183594 78.105469 54.792969 77.945312 C 54.402344 77.78125 54.058594 77.550781 53.757812 77.253906 C 53.460938 76.953125 53.230469 76.609375 53.070312 76.21875 C 52.90625 75.828125 52.828125 75.421875 52.828125 75 C 52.828125 74.578125 52.90625 74.171875 53.070312 73.78125 C 53.230469 73.390625 53.460938 73.046875 53.757812 72.746094 C 54.058594 72.449219 54.402344 72.21875 54.792969 72.054688 C 55.183594 71.894531 55.589844 71.8125 56.011719 71.8125 C 56.433594 71.8125 56.84375 71.894531 57.230469 72.054688 C 57.621094 72.21875 57.96875 72.449219 58.265625 72.746094 C 58.566406 73.046875 58.796875 73.390625 58.957031 73.78125 C 59.117188 74.171875 59.199219 74.578125 59.199219 75 Z M 59.199219 75 " fill-opacity="1" fill-rule="nonzero"/></g><g clip-path="url(#f78678189f)"><path fill="#000000" d="M 7.179688 98.9375 C 7.179688 99.359375 7.101562 99.765625 6.9375 100.15625 C 6.777344 100.546875 6.546875 100.894531 6.25 101.191406 C 5.949219 101.492188 5.605469 101.71875 5.214844 101.882812 C 4.824219 102.042969 4.417969 102.125 3.996094 102.125 C 3.574219 102.125 3.164062 102.042969 2.777344 101.882812 C 2.386719 101.71875 2.039062 101.492188 1.742188 101.191406 C 1.441406 100.894531 1.210938 100.546875 1.050781 100.15625 C 0.890625 99.765625 0.808594 99.359375 0.808594 98.9375 C 0.808594 98.515625 0.890625 98.109375 1.050781 97.71875 C 1.210938 97.328125 1.441406 96.984375 1.742188 96.683594 C 2.039062 96.386719 2.386719 96.15625 2.777344 95.996094 C 3.164062 95.832031 3.574219 95.75 3.996094 95.75 C 4.417969 95.75 4.824219 95.832031 5.214844 95.996094 C 5.605469 96.15625 5.949219 96.386719 6.25 96.683594 C 6.546875 96.984375 6.777344 97.328125 6.9375 97.71875 C 7.101562 98.109375 7.179688 98.515625 7.179688 98.9375 Z M 7.179688 98.9375 " fill-opacity="1" fill-rule="nonzero"/></g><path fill="#000000" d="M 24.597656 98.9375 C 24.597656 99.359375 24.515625 99.765625 24.355469 100.15625 C 24.195312 100.546875 23.964844 100.894531 23.664062 101.191406 C 23.367188 101.492188 23.019531 101.71875 22.628906 101.882812 C 22.242188 102.042969 21.832031 102.125 21.410156 102.125 C 20.988281 102.125 20.582031 102.042969 20.191406 101.882812 C 19.800781 101.71875 19.457031 101.492188 19.15625 101.191406 C 18.859375 100.894531 18.628906 100.546875 18.46875 100.15625 C 18.304688 99.765625 18.226562 99.359375 18.226562 98.9375 C 18.226562 98.515625 18.304688 98.109375 18.46875 97.71875 C 18.628906 97.328125 18.859375 96.984375 19.15625 96.683594 C 19.457031 96.386719 19.800781 96.15625 20.191406 95.996094 C 20.582031 95.832031 20.988281 95.75 21.410156 95.75 C 21.832031 95.75 22.242188 95.832031 22.628906 95.996094 C 23.019531 96.15625 23.367188 96.386719 23.664062 96.683594 C 23.964844 96.984375 24.195312 97.328125 24.355469 97.71875 C 24.515625 98.109375 24.597656 98.515625 24.597656 98.9375 Z M 24.597656 98.9375 " fill-opacity="1" fill-rule="nonzero"/><path fill="#000000" d="M 42.015625 98.9375 C 42.015625 99.359375 41.933594 99.765625 41.773438 100.15625 C 41.609375 100.546875 41.378906 100.894531 41.082031 101.191406 C 40.78125 101.492188 40.4375 101.71875 40.046875 101.882812 C 39.65625 102.042969 39.25 102.125 38.828125 102.125 C 38.40625 102.125 38 102.042969 37.609375 101.882812 C 37.21875 101.71875 36.875 101.492188 36.574219 101.191406 C 36.277344 100.894531 36.046875 100.546875 35.882812 100.15625 C 35.722656 99.765625 35.640625 99.359375 35.640625 98.9375 C 35.640625 98.515625 35.722656 98.109375 35.882812 97.71875 C 36.046875 97.328125 36.277344 96.984375 36.574219 96.683594 C 36.875 96.386719 37.21875 96.15625 37.609375 95.996094 C 38 95.832031 38.40625 95.75 38.828125 95.75 C 39.25 95.75 39.65625 95.832031 40.046875 95.996094 C 40.4375 96.15625 40.78125 96.386719 41.082031 96.683594 C 41.378906 96.984375 41.609375 97.328125 41.773438 97.71875 C 41.933594 98.109375 42.015625 98.515625 42.015625 98.9375 Z M 42.015625 98.9375 " fill-opacity="1" fill-rule="nonzero"/><g clip-path="url(#f9aed8da87)"><path fill="#000000" d="M 59.429688 98.9375 C 59.429688 99.359375 59.351562 99.765625 59.1875 100.15625 C 59.027344 100.546875 58.796875 100.894531 58.496094 101.191406 C 58.199219 101.492188 57.855469 101.71875 57.464844 101.882812 C 57.074219 102.042969 56.667969 102.125 56.242188 102.125 C 55.820312 102.125 55.414062 102.042969 55.023438 101.882812 C 54.632812 101.71875 54.289062 101.492188 53.992188 101.191406 C 53.691406 100.894531 53.460938 100.546875 53.300781 100.15625 C 53.136719 99.765625 53.058594 99.359375 53.058594 98.9375 C 53.058594 98.515625 53.136719 98.109375 53.300781 97.71875 C 53.460938 97.328125 53.691406 96.984375 53.992188 96.683594 C 54.289062 96.386719 54.632812 96.15625 55.023438 95.996094 C 55.414062 95.832031 55.820312 95.75 56.242188 95.75 C 56.667969 95.75 57.074219 95.832031 57.464844 95.996094 C 57.855469 96.15625 58.199219 96.386719 58.496094 96.683594 C 58.796875 96.984375 59.027344 97.328125 59.1875 97.71875 C 59.351562 98.109375 59.429688 98.515625 59.429688 98.9375 Z M 59.429688 98.9375 " fill-opacity="1" fill-rule="nonzero"/></g><g clip-path="url(#febb25c86c)"><path fill="#000000" d="M 7.179688 122.875 C 7.179688 123.296875 7.101562 123.703125 6.9375 124.09375 C 6.777344 124.484375 6.546875 124.832031 6.25 125.128906 C 5.949219 125.429688 5.605469 125.660156 5.214844 125.820312 C 4.824219 125.980469 4.417969 126.0625 3.996094 126.0625 C 3.574219 126.0625 3.164062 125.980469 2.777344 125.820312 C 2.386719 125.660156 2.039062 125.429688 1.742188 125.128906 C 1.441406 124.832031 1.210938 124.484375 1.050781 124.09375 C 0.890625 123.703125 0.808594 123.296875 0.808594 122.875 C 0.808594 122.453125 0.890625 122.046875 1.050781 121.65625 C 1.210938 121.265625 1.441406 120.921875 1.742188 120.621094 C 2.039062 120.324219 2.386719 120.09375 2.777344 119.933594 C 3.164062 119.769531 3.574219 119.691406 3.996094 119.691406 C 4.417969 119.691406 4.824219 119.769531 5.214844 119.933594 C 5.605469 120.09375 5.949219 120.324219 6.25 120.621094 C 6.546875 120.921875 6.777344 121.265625 6.9375 121.65625 C 7.101562 122.046875 7.179688 122.453125 7.179688 122.875 Z M 7.179688 122.875 " fill-opacity="1" fill-rule="nonzero"/></g><path fill="#000000" d="M 24.597656 122.875 C 24.597656 123.296875 24.515625 123.703125 24.355469 124.09375 C 24.195312 124.484375 23.964844 124.832031 23.664062 125.128906 C 23.367188 125.429688 23.019531 125.660156 22.628906 125.820312 C 22.242188 125.980469 21.832031 126.0625 21.410156 126.0625 C 20.988281 126.0625 20.582031 125.980469 20.191406 125.820312 C 19.800781 125.660156 19.457031 125.429688 19.15625 125.128906 C 18.859375 124.832031 18.628906 124.484375 18.46875 124.09375 C 18.304688 123.703125 18.226562 123.296875 18.226562 122.875 C 18.226562 122.453125 18.304688 122.046875 18.46875 121.65625 C 18.628906 121.265625 18.859375 120.921875 19.15625 120.621094 C 19.457031 120.324219 19.800781 120.09375 20.191406 119.933594 C 20.582031 119.769531 20.988281 119.691406 21.410156 119.691406 C 21.832031 119.691406 22.242188 119.769531 22.628906 119.933594 C 23.019531 120.09375 23.367188 120.324219 23.664062 120.621094 C 23.964844 120.921875 24.195312 121.265625 24.355469 121.65625 C 24.515625 122.046875 24.597656 122.453125 24.597656 122.875 Z M 24.597656 122.875 " fill-opacity="1" fill-rule="nonzero"/><path fill="#000000" d="M 42.015625 122.875 C 42.015625 123.296875 41.933594 123.703125 41.773438 124.09375 C 41.609375 124.484375 41.378906 124.832031 41.082031 125.128906 C 40.78125 125.429688 40.4375 125.660156 40.046875 125.820312 C 39.65625 125.980469 39.25 126.0625 38.828125 126.0625 C 38.40625 126.0625 38 125.980469 37.609375 125.820312 C 37.21875 125.660156 36.875 125.429688 36.574219 125.128906 C 36.277344 124.832031 36.046875 124.484375 35.882812 124.09375 C 35.722656 123.703125 35.640625 123.296875 35.640625 122.875 C 35.640625 122.453125 35.722656 122.046875 35.882812 121.65625 C 36.046875 121.265625 36.277344 120.921875 36.574219 120.621094 C 36.875 120.324219 37.21875 120.09375 37.609375 119.933594 C 38 119.769531 38.40625 119.691406 38.828125 119.691406 C 39.25 119.691406 39.65625 119.769531 40.046875 119.933594 C 40.4375 120.09375 40.78125 120.324219 41.082031 120.621094 C 41.378906 120.921875 41.609375 121.265625 41.773438 121.65625 C 41.933594 122.046875 42.015625 122.453125 42.015625 122.875 Z M 42.015625 122.875 " fill-opacity="1" fill-rule="nonzero"/><g clip-path="url(#9b1296fadf)"><path fill="#000000" d="M 59.429688 122.875 C 59.429688 123.296875 59.351562 123.703125 59.1875 124.09375 C 59.027344 124.484375 58.796875 124.832031 58.496094 125.128906 C 58.199219 125.429688 57.855469 125.660156 57.464844 125.820312 C 57.074219 125.980469 56.667969 126.0625 56.242188 126.0625 C 55.820312 126.0625 55.414062 125.980469 55.023438 125.820312 C 54.632812 125.660156 54.289062 125.429688 53.992188 125.128906 C 53.691406 124.832031 53.460938 124.484375 53.300781 124.09375 C 53.136719 123.703125 53.058594 123.296875 53.058594 122.875 C 53.058594 122.453125 53.136719 122.046875 53.300781 121.65625 C 53.460938 121.265625 53.691406 120.921875 53.992188 120.621094 C 54.289062 120.324219 54.632812 120.09375 55.023438 119.933594 C 55.414062 119.769531 55.820312 119.691406 56.242188 119.691406 C 56.667969 119.691406 57.074219 119.769531 57.464844 119.933594 C 57.855469 120.09375 58.199219 120.324219 58.496094 120.621094 C 58.796875 120.921875 59.027344 121.265625 59.1875 121.65625 C 59.351562 122.046875 59.429688 122.453125 59.429688 122.875 Z M 59.429688 122.875 " fill-opacity="1" fill-rule="nonzero"/></g><g clip-path="url(#7b6b05df57)"><path fill="#000000" d="M 7.179688 146.8125 C 7.179688 147.238281 7.101562 147.644531 6.9375 148.035156 C 6.777344 148.421875 6.546875 148.769531 6.25 149.066406 C 5.949219 149.367188 5.605469 149.597656 5.214844 149.757812 C 4.824219 149.917969 4.417969 150 3.996094 150 C 3.574219 150 3.164062 149.917969 2.777344 149.757812 C 2.386719 149.597656 2.039062 149.367188 1.742188 149.066406 C 1.441406 148.769531 1.210938 148.421875 1.050781 148.035156 C 0.890625 147.644531 0.808594 147.238281 0.808594 146.8125 C 0.808594 146.390625 0.890625 145.984375 1.050781 145.59375 C 1.210938 145.203125 1.441406 144.859375 1.742188 144.5625 C 2.039062 144.261719 2.386719 144.03125 2.777344 143.871094 C 3.164062 143.707031 3.574219 143.628906 3.996094 143.628906 C 4.417969 143.628906 4.824219 143.707031 5.214844 143.871094 C 5.605469 144.03125 5.949219 144.261719 6.25 144.5625 C 6.546875 144.859375 6.777344 145.203125 6.9375 145.59375 C 7.101562 145.984375 7.179688 146.390625 7.179688 146.8125 Z M 7.179688 146.8125 " fill-opacity="1" fill-rule="nonzero"/></g><path fill="#000000" d="M 24.597656 146.8125 C 24.597656 147.238281 24.515625 147.644531 24.355469 148.035156 C 24.195312 148.421875 23.964844 148.769531 23.664062 149.066406 C 23.367188 149.367188 23.019531 149.597656 22.628906 149.757812 C 22.242188 149.917969 21.832031 150 21.410156 150 C 20.988281 150 20.582031 149.917969 20.191406 149.757812 C 19.800781 149.597656 19.457031 149.367188 19.15625 149.066406 C 18.859375 148.769531 18.628906 148.421875 18.46875 148.035156 C 18.304688 147.644531 18.226562 147.238281 18.226562 146.8125 C 18.226562 146.390625 18.304688 145.984375 18.46875 145.59375 C 18.628906 145.203125 18.859375 144.859375 19.15625 144.5625 C 19.457031 144.261719 19.800781 144.03125 20.191406 143.871094 C 20.582031 143.707031 20.988281 143.628906 21.410156 143.628906 C 21.832031 143.628906 22.242188 143.707031 22.628906 143.871094 C 23.019531 144.03125 23.367188 144.261719 23.664062 144.5625 C 23.964844 144.859375 24.195312 145.203125 24.355469 145.59375 C 24.515625 145.984375 24.597656 146.390625 24.597656 146.8125 Z M 24.597656 146.8125 " fill-opacity="1" fill-rule="nonzero"/><path fill="#000000" d="M 42.015625 146.8125 C 42.015625 147.238281 41.933594 147.644531 41.773438 148.035156 C 41.609375 148.421875 41.378906 148.769531 41.082031 149.066406 C 40.78125 149.367188 40.4375 149.597656 40.046875 149.757812 C 39.65625 149.917969 39.25 150 38.828125 150 C 38.40625 150 38 149.917969 37.609375 149.757812 C 37.21875 149.597656 36.875 149.367188 36.574219 149.066406 C 36.277344 148.769531 36.046875 148.421875 35.882812 148.035156 C 35.722656 147.644531 35.640625 147.238281 35.640625 146.8125 C 35.640625 146.390625 35.722656 145.984375 35.882812 145.59375 C 36.046875 145.203125 36.277344 144.859375 36.574219 144.5625 C 36.875 144.261719 37.21875 144.03125 37.609375 143.871094 C 38 143.707031 38.40625 143.628906 38.828125 143.628906 C 39.25 143.628906 39.65625 143.707031 40.046875 143.871094 C 40.4375 144.03125 40.78125 144.261719 41.082031 144.5625 C 41.378906 144.859375 41.609375 145.203125 41.773438 145.59375 C 41.933594 145.984375 42.015625 146.390625 42.015625 146.8125 Z M 42.015625 146.8125 " fill-opacity="1" fill-rule="nonzero"/><g clip-path="url(#81b83d7a5e)"><path fill="#000000" d="M 59.429688 146.8125 C 59.429688 147.238281 59.351562 147.644531 59.1875 148.035156 C 59.027344 148.421875 58.796875 148.769531 58.496094 149.066406 C 58.199219 149.367188 57.855469 149.597656 57.464844 149.757812 C 57.074219 149.917969 56.667969 150 56.242188 150 C 55.820312 150 55.414062 149.917969 55.023438 149.757812 C 54.632812 149.597656 54.289062 149.367188 53.992188 149.066406 C 53.691406 148.769531 53.460938 148.421875 53.300781 148.035156 C 53.136719 147.644531 53.058594 147.238281 53.058594 146.8125 C 53.058594 146.390625 53.136719 145.984375 53.300781 145.59375 C 53.460938 145.203125 53.691406 144.859375 53.992188 144.5625 C 54.289062 144.261719 54.632812 144.03125 55.023438 143.871094 C 55.414062 143.707031 55.820312 143.628906 56.242188 143.628906 C 56.667969 143.628906 57.074219 143.707031 57.464844 143.871094 C 57.855469 144.03125 58.199219 144.261719 58.496094 144.5625 C 58.796875 144.859375 59.027344 145.203125 59.1875 145.59375 C 59.351562 145.984375 59.429688 146.390625 59.429688 146.8125 Z M 59.429688 146.8125 " fill-opacity="1" fill-rule="nonzero"/></g><g clip-path="url(#f2b9e3ad6f)"><path fill="#000000" d="M 6.949219 51.0625 C 6.949219 51.484375 6.871094 51.890625 6.707031 52.28125 C 6.546875 52.671875 6.316406 53.015625 6.015625 53.316406 C 5.71875 53.613281 5.375 53.84375 4.984375 54.007812 C 4.59375 54.167969 4.1875 54.25 3.761719 54.25 C 3.339844 54.25 2.933594 54.167969 2.542969 54.007812 C 2.152344 53.84375 1.808594 53.613281 1.511719 53.316406 C 1.210938 53.015625 0.980469 52.671875 0.820312 52.28125 C 0.65625 51.890625 0.578125 51.484375 0.578125 51.0625 C 0.578125 50.640625 0.65625 50.234375 0.820312 49.84375 C 0.980469 49.453125 1.210938 49.109375 1.511719 48.808594 C 1.808594 48.511719 2.152344 48.28125 2.542969 48.117188 C 2.933594 47.957031 3.339844 47.875 3.761719 47.875 C 4.1875 47.875 4.59375 47.957031 4.984375 48.117188 C 5.375 48.28125 5.71875 48.511719 6.015625 48.808594 C 6.316406 49.109375 6.546875 49.453125 6.707031 49.84375 C 6.871094 50.234375 6.949219 50.640625 6.949219 51.0625 Z M 6.949219 51.0625 " fill-opacity="1" fill-rule="nonzero"/></g><path fill="#000000" d="M 24.367188 51.0625 C 24.367188 51.484375 24.285156 51.890625 24.125 52.28125 C 23.960938 52.671875 23.730469 53.015625 23.433594 53.316406 C 23.132812 53.613281 22.789062 53.84375 22.398438 54.007812 C 22.007812 54.167969 21.601562 54.25 21.179688 54.25 C 20.757812 54.25 20.351562 54.167969 19.960938 54.007812 C 19.570312 53.84375 19.226562 53.613281 18.925781 53.316406 C 18.628906 53.015625 18.398438 52.671875 18.234375 52.28125 C 18.074219 51.890625 17.992188 51.484375 17.992188 51.0625 C 17.992188 50.640625 18.074219 50.234375 18.234375 49.84375 C 18.398438 49.453125 18.628906 49.109375 18.925781 48.808594 C 19.226562 48.511719 19.570312 48.28125 19.960938 48.117188 C 20.351562 47.957031 20.757812 47.875 21.179688 47.875 C 21.601562 47.875 22.007812 47.957031 22.398438 48.117188 C 22.789062 48.28125 23.132812 48.511719 23.433594 48.808594 C 23.730469 49.109375 23.960938 49.453125 24.125 49.84375 C 24.285156 50.234375 24.367188 50.640625 24.367188 51.0625 Z M 24.367188 51.0625 " fill-opacity="1" fill-rule="nonzero"/><path fill="#000000" d="M 41.78125 51.0625 C 41.78125 51.484375 41.703125 51.890625 41.539062 52.28125 C 41.378906 52.671875 41.148438 53.015625 40.851562 53.316406 C 40.550781 53.613281 40.207031 53.84375 39.816406 54.007812 C 39.425781 54.167969 39.019531 54.25 38.597656 54.25 C 38.175781 54.25 37.765625 54.167969 37.378906 54.007812 C 36.988281 53.84375 36.640625 53.613281 36.34375 53.316406 C 36.042969 53.015625 35.8125 52.671875 35.652344 52.28125 C 35.492188 51.890625 35.410156 51.484375 35.410156 51.0625 C 35.410156 50.640625 35.492188 50.234375 35.652344 49.84375 C 35.8125 49.453125 36.042969 49.109375 36.34375 48.808594 C 36.640625 48.511719 36.988281 48.28125 37.378906 48.117188 C 37.765625 47.957031 38.175781 47.875 38.597656 47.875 C 39.019531 47.875 39.425781 47.957031 39.816406 48.117188 C 40.207031 48.28125 40.550781 48.511719 40.851562 48.808594 C 41.148438 49.109375 41.378906 49.453125 41.539062 49.84375 C 41.703125 50.234375 41.78125 50.640625 41.78125 51.0625 Z M 41.78125 51.0625 " fill-opacity="1" fill-rule="nonzero"/><g clip-path="url(#298b9a6a3f)"><path fill="#000000" d="M 59.199219 51.0625 C 59.199219 51.484375 59.117188 51.890625 58.957031 52.28125 C 58.796875 52.671875 58.566406 53.015625 58.265625 53.316406 C 57.96875 53.613281 57.621094 53.84375 57.230469 54.007812 C 56.84375 54.167969 56.433594 54.25 56.011719 54.25 C 55.589844 54.25 55.183594 54.167969 54.792969 54.007812 C 54.402344 53.84375 54.058594 53.613281 53.757812 53.316406 C 53.460938 53.015625 53.230469 52.671875 53.070312 52.28125 C 52.90625 51.890625 52.828125 51.484375 52.828125 51.0625 C 52.828125 50.640625 52.90625 50.234375 53.070312 49.84375 C 53.230469 49.453125 53.460938 49.109375 53.757812 48.808594 C 54.058594 48.511719 54.402344 48.28125 54.792969 48.117188 C 55.183594 47.957031 55.589844 47.875 56.011719 47.875 C 56.433594 47.875 56.84375 47.957031 57.230469 48.117188 C 57.621094 48.28125 57.96875 48.511719 58.265625 48.808594 C 58.566406 49.109375 58.796875 49.453125 58.957031 49.84375 C 59.117188 50.234375 59.199219 50.640625 59.199219 51.0625 Z M 59.199219 51.0625 " fill-opacity="1" fill-rule="nonzero"/></g><g clip-path="url(#d108b64c4c)"><path fill="#000000" d="M 6.949219 27.125 C 6.949219 27.546875 6.871094 27.953125 6.707031 28.34375 C 6.546875 28.734375 6.316406 29.078125 6.015625 29.378906 C 5.71875 29.675781 5.375 29.90625 4.984375 30.070312 C 4.59375 30.230469 4.1875 30.3125 3.761719 30.3125 C 3.339844 30.3125 2.933594 30.230469 2.542969 30.070312 C 2.152344 29.90625 1.808594 29.675781 1.511719 29.378906 C 1.210938 29.078125 0.980469 28.734375 0.820312 28.34375 C 0.65625 27.953125 0.578125 27.546875 0.578125 27.125 C 0.578125 26.703125 0.65625 26.296875 0.820312 25.90625 C 0.980469 25.515625 1.210938 25.171875 1.511719 24.871094 C 1.808594 24.574219 2.152344 24.34375 2.542969 24.179688 C 2.933594 24.019531 3.339844 23.9375 3.761719 23.9375 C 4.1875 23.9375 4.59375 24.019531 4.984375 24.179688 C 5.375 24.34375 5.71875 24.574219 6.015625 24.871094 C 6.316406 25.171875 6.546875 25.515625 6.707031 25.90625 C 6.871094 26.296875 6.949219 26.703125 6.949219 27.125 Z M 6.949219 27.125 " fill-opacity="1" fill-rule="nonzero"/></g><path fill="#000000" d="M 24.367188 27.125 C 24.367188 27.546875 24.285156 27.953125 24.125 28.34375 C 23.960938 28.734375 23.730469 29.078125 23.433594 29.378906 C 23.132812 29.675781 22.789062 29.90625 22.398438 30.070312 C 22.007812 30.230469 21.601562 30.3125 21.179688 30.3125 C 20.757812 30.3125 20.351562 30.230469 19.960938 30.070312 C 19.570312 29.90625 19.226562 29.675781 18.925781 29.378906 C 18.628906 29.078125 18.398438 28.734375 18.234375 28.34375 C 18.074219 27.953125 17.992188 27.546875 17.992188 27.125 C 17.992188 26.703125 18.074219 26.296875 18.234375 25.90625 C 18.398438 25.515625 18.628906 25.171875 18.925781 24.871094 C 19.226562 24.574219 19.570312 24.34375 19.960938 24.179688 C 20.351562 24.019531 20.757812 23.9375 21.179688 23.9375 C 21.601562 23.9375 22.007812 24.019531 22.398438 24.179688 C 22.789062 24.34375 23.132812 24.574219 23.433594 24.871094 C 23.730469 25.171875 23.960938 25.515625 24.125 25.90625 C 24.285156 26.296875 24.367188 26.703125 24.367188 27.125 Z M 24.367188 27.125 " fill-opacity="1" fill-rule="nonzero"/><path fill="#000000" d="M 41.78125 27.125 C 41.78125 27.546875 41.703125 27.953125 41.539062 28.34375 C 41.378906 28.734375 41.148438 29.078125 40.851562 29.378906 C 40.550781 29.675781 40.207031 29.90625 39.816406 30.070312 C 39.425781 30.230469 39.019531 30.3125 38.597656 30.3125 C 38.175781 30.3125 37.765625 30.230469 37.378906 30.070312 C 36.988281 29.90625 36.640625 29.675781 36.34375 29.378906 C 36.042969 29.078125 35.8125 28.734375 35.652344 28.34375 C 35.492188 27.953125 35.410156 27.546875 35.410156 27.125 C 35.410156 26.703125 35.492188 26.296875 35.652344 25.90625 C 35.8125 25.515625 36.042969 25.171875 36.34375 24.871094 C 36.640625 24.574219 36.988281 24.34375 37.378906 24.179688 C 37.765625 24.019531 38.175781 23.9375 38.597656 23.9375 C 39.019531 23.9375 39.425781 24.019531 39.816406 24.179688 C 40.207031 24.34375 40.550781 24.574219 40.851562 24.871094 C 41.148438 25.171875 41.378906 25.515625 41.539062 25.90625 C 41.703125 26.296875 41.78125 26.703125 41.78125 27.125 Z M 41.78125 27.125 " fill-opacity="1" fill-rule="nonzero"/><g clip-path="url(#f013002321)"><path fill="#000000" d="M 59.199219 27.125 C 59.199219 27.546875 59.117188 27.953125 58.957031 28.34375 C 58.796875 28.734375 58.566406 29.078125 58.265625 29.378906 C 57.96875 29.675781 57.621094 29.90625 57.230469 30.070312 C 56.84375 30.230469 56.433594 30.3125 56.011719 30.3125 C 55.589844 30.3125 55.183594 30.230469 54.792969 30.070312 C 54.402344 29.90625 54.058594 29.675781 53.757812 29.378906 C 53.460938 29.078125 53.230469 28.734375 53.070312 28.34375 C 52.90625 27.953125 52.828125 27.546875 52.828125 27.125 C 52.828125 26.703125 52.90625 26.296875 53.070312 25.90625 C 53.230469 25.515625 53.460938 25.171875 53.757812 24.871094 C 54.058594 24.574219 54.402344 24.34375 54.792969 24.179688 C 55.183594 24.019531 55.589844 23.9375 56.011719 23.9375 C 56.433594 23.9375 56.84375 24.019531 57.230469 24.179688 C 57.621094 24.34375 57.96875 24.574219 58.265625 24.871094 C 58.566406 25.171875 58.796875 25.515625 58.957031 25.90625 C 59.117188 26.296875 59.199219 26.703125 59.199219 27.125 Z M 59.199219 27.125 " fill-opacity="1" fill-rule="nonzero"/></g><g clip-path="url(#baf463e5c0)"><path fill="#000000" d="M 7.179688 3.1875 C 7.179688 3.609375 7.101562 4.015625 6.9375 4.40625 C 6.777344 4.796875 6.546875 5.140625 6.25 5.441406 C 5.949219 5.738281 5.605469 5.96875 5.214844 6.128906 C 4.824219 6.292969 4.417969 6.375 3.996094 6.375 C 3.574219 6.375 3.164062 6.292969 2.777344 6.128906 C 2.386719 5.96875 2.039062 5.738281 1.742188 5.441406 C 1.441406 5.140625 1.210938 4.796875 1.050781 4.40625 C 0.890625 4.015625 0.808594 3.609375 0.808594 3.1875 C 0.808594 2.765625 0.890625 2.359375 1.050781 1.96875 C 1.210938 1.578125 1.441406 1.230469 1.742188 0.933594 C 2.039062 0.632812 2.386719 0.402344 2.777344 0.242188 C 3.164062 0.0820312 3.574219 0 3.996094 0 C 4.417969 0 4.824219 0.0820312 5.214844 0.242188 C 5.605469 0.402344 5.949219 0.632812 6.25 0.933594 C 6.546875 1.230469 6.777344 1.578125 6.9375 1.96875 C 7.101562 2.359375 7.179688 2.765625 7.179688 3.1875 Z M 7.179688 3.1875 " fill-opacity="1" fill-rule="nonzero"/></g><path fill="#000000" d="M 24.367188 3.1875 C 24.367188 3.609375 24.285156 4.015625 24.125 4.40625 C 23.960938 4.796875 23.730469 5.140625 23.433594 5.441406 C 23.132812 5.738281 22.789062 5.96875 22.398438 6.128906 C 22.007812 6.292969 21.601562 6.375 21.179688 6.375 C 20.757812 6.375 20.351562 6.292969 19.960938 6.128906 C 19.570312 5.96875 19.226562 5.738281 18.925781 5.441406 C 18.628906 5.140625 18.398438 4.796875 18.234375 4.40625 C 18.074219 4.015625 17.992188 3.609375 17.992188 3.1875 C 17.992188 2.765625 18.074219 2.359375 18.234375 1.96875 C 18.398438 1.578125 18.628906 1.230469 18.925781 0.933594 C 19.226562 0.632812 19.570312 0.402344 19.960938 0.242188 C 20.351562 0.0820312 20.757812 0 21.179688 0 C 21.601562 0 22.007812 0.0820312 22.398438 0.242188 C 22.789062 0.402344 23.132812 0.632812 23.433594 0.933594 C 23.730469 1.230469 23.960938 1.578125 24.125 1.96875 C 24.285156 2.359375 24.367188 2.765625 24.367188 3.1875 Z M 24.367188 3.1875 " fill-opacity="1" fill-rule="nonzero"/><path fill="#000000" d="M 41.78125 3.1875 C 41.78125 3.609375 41.703125 4.015625 41.539062 4.40625 C 41.378906 4.796875 41.148438 5.140625 40.851562 5.441406 C 40.550781 5.738281 40.207031 5.96875 39.816406 6.128906 C 39.425781 6.292969 39.019531 6.375 38.597656 6.375 C 38.175781 6.375 37.765625 6.292969 37.378906 6.128906 C 36.988281 5.96875 36.640625 5.738281 36.34375 5.441406 C 36.042969 5.140625 35.8125 4.796875 35.652344 4.40625 C 35.492188 4.015625 35.410156 3.609375 35.410156 3.1875 C 35.410156 2.765625 35.492188 2.359375 35.652344 1.96875 C 35.8125 1.578125 36.042969 1.230469 36.34375 0.933594 C 36.640625 0.632812 36.988281 0.402344 37.378906 0.242188 C 37.765625 0.0820312 38.175781 0 38.597656 0 C 39.019531 0 39.425781 0.0820312 39.816406 0.242188 C 40.207031 0.402344 40.550781 0.632812 40.851562 0.933594 C 41.148438 1.230469 41.378906 1.578125 41.539062 1.96875 C 41.703125 2.359375 41.78125 2.765625 41.78125 3.1875 Z M 41.78125 3.1875 " fill-opacity="1" fill-rule="nonzero"/><g clip-path="url(#f991017b68)"><path fill="#000000" d="M 59.199219 3.1875 C 59.199219 3.609375 59.117188 4.015625 58.957031 4.40625 C 58.796875 4.796875 58.566406 5.140625 58.265625 5.441406 C 57.96875 5.738281 57.621094 5.96875 57.230469 6.128906 C 56.84375 6.292969 56.433594 6.375 56.011719 6.375 C 55.589844 6.375 55.183594 6.292969 54.792969 6.128906 C 54.402344 5.96875 54.058594 5.738281 53.757812 5.441406 C 53.460938 5.140625 53.230469 4.796875 53.070312 4.40625 C 52.90625 4.015625 52.828125 3.609375 52.828125 3.1875 C 52.828125 2.765625 52.90625 2.359375 53.070312 1.96875 C 53.230469 1.578125 53.460938 1.230469 53.757812 0.933594 C 54.058594 0.632812 54.402344 0.402344 54.792969 0.242188 C 55.183594 0.0820312 55.589844 0 56.011719 0 C 56.433594 0 56.84375 0.0820312 57.230469 0.242188 C 57.621094 0.402344 57.96875 0.632812 58.265625 0.933594 C 58.566406 1.230469 58.796875 1.578125 58.957031 1.96875 C 59.117188 2.359375 59.199219 2.765625 59.199219 3.1875 Z M 59.199219 3.1875 " fill-opacity="1" fill-rule="nonzero"/></g><g clip-path="url(#802b2e0cca)"><path fill="#000000" d="M 6.949219 75 C 6.949219 75.421875 6.871094 75.828125 6.707031 76.21875 C 6.546875 76.609375 6.316406 76.953125 6.015625 77.253906 C 5.71875 77.550781 5.375 77.78125 4.984375 77.945312 C 4.59375 78.105469 4.1875 78.1875 3.761719 78.1875 C 3.339844 78.1875 2.933594 78.105469 2.542969 77.945312 C 2.152344 77.78125 1.808594 77.550781 1.511719 77.253906 C 1.210938 76.953125 0.980469 76.609375 0.820312 76.21875 C 0.65625 75.828125 0.578125 75.421875 0.578125 75 C 0.578125 74.578125 0.65625 74.171875 0.820312 73.78125 C 0.980469 73.390625 1.210938 73.046875 1.511719 72.746094 C 1.808594 72.449219 2.152344 72.21875 2.542969 72.054688 C 2.933594 71.894531 3.339844 71.8125 3.761719 71.8125 C 4.1875 71.8125 4.59375 71.894531 4.984375 72.054688 C 5.375 72.21875 5.71875 72.449219 6.015625 72.746094 C 6.316406 73.046875 6.546875 73.390625 6.707031 73.78125 C 6.871094 74.171875 6.949219 74.578125 6.949219 75 Z M 6.949219 75 " fill-opacity="1" fill-rule="nonzero"/></g><path fill="#000000" d="M 24.367188 75 C 24.367188 75.421875 24.285156 75.828125 24.125 76.21875 C 23.960938 76.609375 23.730469 76.953125 23.433594 77.253906 C 23.132812 77.550781 22.789062 77.78125 22.398438 77.945312 C 22.007812 78.105469 21.601562 78.1875 21.179688 78.1875 C 20.757812 78.1875 20.351562 78.105469 19.960938 77.945312 C 19.570312 77.78125 19.226562 77.550781 18.925781 77.253906 C 18.628906 76.953125 18.398438 76.609375 18.234375 76.21875 C 18.074219 75.828125 17.992188 75.421875 17.992188 75 C 17.992188 74.578125 18.074219 74.171875 18.234375 73.78125 C 18.398438 73.390625 18.628906 73.046875 18.925781 72.746094 C 19.226562 72.449219 19.570312 72.21875 19.960938 72.054688 C 20.351562 71.894531 20.757812 71.8125 21.179688 71.8125 C 21.601562 71.8125 22.007812 71.894531 22.398438 72.054688 C 22.789062 72.21875 23.132812 72.449219 23.433594 72.746094 C 23.730469 73.046875 23.960938 73.390625 24.125 73.78125 C 24.285156 74.171875 24.367188 74.578125 24.367188 75 Z M 24.367188 75 " fill-opacity="1" fill-rule="nonzero"/><path fill="#000000" d="M 41.78125 75 C 41.78125 75.421875 41.703125 75.828125 41.539062 76.21875 C 41.378906 76.609375 41.148438 76.953125 40.851562 77.253906 C 40.550781 77.550781 40.207031 77.78125 39.816406 77.945312 C 39.425781 78.105469 39.019531 78.1875 38.597656 78.1875 C 38.175781 78.1875 37.765625 78.105469 37.378906 77.945312 C 36.988281 77.78125 36.640625 77.550781 36.34375 77.253906 C 36.042969 76.953125 35.8125 76.609375 35.652344 76.21875 C 35.492188 75.828125 35.410156 75.421875 35.410156 75 C 35.410156 74.578125 35.492188 74.171875 35.652344 73.78125 C 35.8125 73.390625 36.042969 73.046875 36.34375 72.746094 C 36.640625 72.449219 36.988281 72.21875 37.378906 72.054688 C 37.765625 71.894531 38.175781 71.8125 38.597656 71.8125 C 39.019531 71.8125 39.425781 71.894531 39.816406 72.054688 C 40.207031 72.21875 40.550781 72.449219 40.851562 72.746094 C 41.148438 73.046875 41.378906 73.390625 41.539062 73.78125 C 41.703125 74.171875 41.78125 74.578125 41.78125 75 Z M 41.78125 75 " fill-opacity="1" fill-rule="nonzero"/><g clip-path="url(#ee28013279)"><path fill="#000000" d="M 59.199219 75 C 59.199219 75.421875 59.117188 75.828125 58.957031 76.21875 C 58.796875 76.609375 58.566406 76.953125 58.265625 77.253906 C 57.96875 77.550781 57.621094 77.78125 57.230469 77.945312 C 56.84375 78.105469 56.433594 78.1875 56.011719 78.1875 C 55.589844 78.1875 55.183594 78.105469 54.792969 77.945312 C 54.402344 77.78125 54.058594 77.550781 53.757812 77.253906 C 53.460938 76.953125 53.230469 76.609375 53.070312 76.21875 C 52.90625 75.828125 52.828125 75.421875 52.828125 75 C 52.828125 74.578125 52.90625 74.171875 53.070312 73.78125 C 53.230469 73.390625 53.460938 73.046875 53.757812 72.746094 C 54.058594 72.449219 54.402344 72.21875 54.792969 72.054688 C 55.183594 71.894531 55.589844 71.8125 56.011719 71.8125 C 56.433594 71.8125 56.84375 71.894531 57.230469 72.054688 C 57.621094 72.21875 57.96875 72.449219 58.265625 72.746094 C 58.566406 73.046875 58.796875 73.390625 58.957031 73.78125 C 59.117188 74.171875 59.199219 74.578125 59.199219 75 Z M 59.199219 75 " fill-opacity="1" fill-rule="nonzero"/></g><g clip-path="url(#5ad9d64d49)"><path fill="#000000" d="M 7.179688 98.9375 C 7.179688 99.359375 7.101562 99.765625 6.9375 100.15625 C 6.777344 100.546875 6.546875 100.894531 6.25 101.191406 C 5.949219 101.492188 5.605469 101.71875 5.214844 101.882812 C 4.824219 102.042969 4.417969 102.125 3.996094 102.125 C 3.574219 102.125 3.164062 102.042969 2.777344 101.882812 C 2.386719 101.71875 2.039062 101.492188 1.742188 101.191406 C 1.441406 100.894531 1.210938 100.546875 1.050781 100.15625 C 0.890625 99.765625 0.808594 99.359375 0.808594 98.9375 C 0.808594 98.515625 0.890625 98.109375 1.050781 97.71875 C 1.210938 97.328125 1.441406 96.984375 1.742188 96.683594 C 2.039062 96.386719 2.386719 96.15625 2.777344 95.996094 C 3.164062 95.832031 3.574219 95.75 3.996094 95.75 C 4.417969 95.75 4.824219 95.832031 5.214844 95.996094 C 5.605469 96.15625 5.949219 96.386719 6.25 96.683594 C 6.546875 96.984375 6.777344 97.328125 6.9375 97.71875 C 7.101562 98.109375 7.179688 98.515625 7.179688 98.9375 Z M 7.179688 98.9375 " fill-opacity="1" fill-rule="nonzero"/></g><path fill="#000000" d="M 24.597656 98.9375 C 24.597656 99.359375 24.515625 99.765625 24.355469 100.15625 C 24.195312 100.546875 23.964844 100.894531 23.664062 101.191406 C 23.367188 101.492188 23.019531 101.71875 22.628906 101.882812 C 22.242188 102.042969 21.832031 102.125 21.410156 102.125 C 20.988281 102.125 20.582031 102.042969 20.191406 101.882812 C 19.800781 101.71875 19.457031 101.492188 19.15625 101.191406 C 18.859375 100.894531 18.628906 100.546875 18.46875 100.15625 C 18.304688 99.765625 18.226562 99.359375 18.226562 98.9375 C 18.226562 98.515625 18.304688 98.109375 18.46875 97.71875 C 18.628906 97.328125 18.859375 96.984375 19.15625 96.683594 C 19.457031 96.386719 19.800781 96.15625 20.191406 95.996094 C 20.582031 95.832031 20.988281 95.75 21.410156 95.75 C 21.832031 95.75 22.242188 95.832031 22.628906 95.996094 C 23.019531 96.15625 23.367188 96.386719 23.664062 96.683594 C 23.964844 96.984375 24.195312 97.328125 24.355469 97.71875 C 24.515625 98.109375 24.597656 98.515625 24.597656 98.9375 Z M 24.597656 98.9375 " fill-opacity="1" fill-rule="nonzero"/><path fill="#000000" d="M 42.015625 98.9375 C 42.015625 99.359375 41.933594 99.765625 41.773438 100.15625 C 41.609375 100.546875 41.378906 100.894531 41.082031 101.191406 C 40.78125 101.492188 40.4375 101.71875 40.046875 101.882812 C 39.65625 102.042969 39.25 102.125 38.828125 102.125 C 38.40625 102.125 38 102.042969 37.609375 101.882812 C 37.21875 101.71875 36.875 101.492188 36.574219 101.191406 C 36.277344 100.894531 36.046875 100.546875 35.882812 100.15625 C 35.722656 99.765625 35.640625 99.359375 35.640625 98.9375 C 35.640625 98.515625 35.722656 98.109375 35.882812 97.71875 C 36.046875 97.328125 36.277344 96.984375 36.574219 96.683594 C 36.875 96.386719 37.21875 96.15625 37.609375 95.996094 C 38 95.832031 38.40625 95.75 38.828125 95.75 C 39.25 95.75 39.65625 95.832031 40.046875 95.996094 C 40.4375 96.15625 40.78125 96.386719 41.082031 96.683594 C 41.378906 96.984375 41.609375 97.328125 41.773438 97.71875 C 41.933594 98.109375 42.015625 98.515625 42.015625 98.9375 Z M 42.015625 98.9375 " fill-opacity="1" fill-rule="nonzero"/><g clip-path="url(#2fe1a7169c)"><path fill="#000000" d="M 59.429688 98.9375 C 59.429688 99.359375 59.351562 99.765625 59.1875 100.15625 C 59.027344 100.546875 58.796875 100.894531 58.496094 101.191406 C 58.199219 101.492188 57.855469 101.71875 57.464844 101.882812 C 57.074219 102.042969 56.667969 102.125 56.242188 102.125 C 55.820312 102.125 55.414062 102.042969 55.023438 101.882812 C 54.632812 101.71875 54.289062 101.492188 53.992188 101.191406 C 53.691406 100.894531 53.460938 100.546875 53.300781 100.15625 C 53.136719 99.765625 53.058594 99.359375 53.058594 98.9375 C 53.058594 98.515625 53.136719 98.109375 53.300781 97.71875 C 53.460938 97.328125 53.691406 96.984375 53.992188 96.683594 C 54.289062 96.386719 54.632812 96.15625 55.023438 95.996094 C 55.414062 95.832031 55.820312 95.75 56.242188 95.75 C 56.667969 95.75 57.074219 95.832031 57.464844 95.996094 C 57.855469 96.15625 58.199219 96.386719 58.496094 96.683594 C 58.796875 96.984375 59.027344 97.328125 59.1875 97.71875 C 59.351562 98.109375 59.429688 98.515625 59.429688 98.9375 Z M 59.429688 98.9375 " fill-opacity="1" fill-rule="nonzero"/></g><g clip-path="url(#f1b550118d)"><path fill="#000000" d="M 7.179688 122.875 C 7.179688 123.296875 7.101562 123.703125 6.9375 124.09375 C 6.777344 124.484375 6.546875 124.832031 6.25 125.128906 C 5.949219 125.429688 5.605469 125.660156 5.214844 125.820312 C 4.824219 125.980469 4.417969 126.0625 3.996094 126.0625 C 3.574219 126.0625 3.164062 125.980469 2.777344 125.820312 C 2.386719 125.660156 2.039062 125.429688 1.742188 125.128906 C 1.441406 124.832031 1.210938 124.484375 1.050781 124.09375 C 0.890625 123.703125 0.808594 123.296875 0.808594 122.875 C 0.808594 122.453125 0.890625 122.046875 1.050781 121.65625 C 1.210938 121.265625 1.441406 120.921875 1.742188 120.621094 C 2.039062 120.324219 2.386719 120.09375 2.777344 119.933594 C 3.164062 119.769531 3.574219 119.691406 3.996094 119.691406 C 4.417969 119.691406 4.824219 119.769531 5.214844 119.933594 C 5.605469 120.09375 5.949219 120.324219 6.25 120.621094 C 6.546875 120.921875 6.777344 121.265625 6.9375 121.65625 C 7.101562 122.046875 7.179688 122.453125 7.179688 122.875 Z M 7.179688 122.875 " fill-opacity="1" fill-rule="nonzero"/></g><path fill="#000000" d="M 24.597656 122.875 C 24.597656 123.296875 24.515625 123.703125 24.355469 124.09375 C 24.195312 124.484375 23.964844 124.832031 23.664062 125.128906 C 23.367188 125.429688 23.019531 125.660156 22.628906 125.820312 C 22.242188 125.980469 21.832031 126.0625 21.410156 126.0625 C 20.988281 126.0625 20.582031 125.980469 20.191406 125.820312 C 19.800781 125.660156 19.457031 125.429688 19.15625 125.128906 C 18.859375 124.832031 18.628906 124.484375 18.46875 124.09375 C 18.304688 123.703125 18.226562 123.296875 18.226562 122.875 C 18.226562 122.453125 18.304688 122.046875 18.46875 121.65625 C 18.628906 121.265625 18.859375 120.921875 19.15625 120.621094 C 19.457031 120.324219 19.800781 120.09375 20.191406 119.933594 C 20.582031 119.769531 20.988281 119.691406 21.410156 119.691406 C 21.832031 119.691406 22.242188 119.769531 22.628906 119.933594 C 23.019531 120.09375 23.367188 120.324219 23.664062 120.621094 C 23.964844 120.921875 24.195312 121.265625 24.355469 121.65625 C 24.515625 122.046875 24.597656 122.453125 24.597656 122.875 Z M 24.597656 122.875 " fill-opacity="1" fill-rule="nonzero"/><path fill="#000000" d="M 42.015625 122.875 C 42.015625 123.296875 41.933594 123.703125 41.773438 124.09375 C 41.609375 124.484375 41.378906 124.832031 41.082031 125.128906 C 40.78125 125.429688 40.4375 125.660156 40.046875 125.820312 C 39.65625 125.980469 39.25 126.0625 38.828125 126.0625 C 38.40625 126.0625 38 125.980469 37.609375 125.820312 C 37.21875 125.660156 36.875 125.429688 36.574219 125.128906 C 36.277344 124.832031 36.046875 124.484375 35.882812 124.09375 C 35.722656 123.703125 35.640625 123.296875 35.640625 122.875 C 35.640625 122.453125 35.722656 122.046875 35.882812 121.65625 C 36.046875 121.265625 36.277344 120.921875 36.574219 120.621094 C 36.875 120.324219 37.21875 120.09375 37.609375 119.933594 C 38 119.769531 38.40625 119.691406 38.828125 119.691406 C 39.25 119.691406 39.65625 119.769531 40.046875 119.933594 C 40.4375 120.09375 40.78125 120.324219 41.082031 120.621094 C 41.378906 120.921875 41.609375 121.265625 41.773438 121.65625 C 41.933594 122.046875 42.015625 122.453125 42.015625 122.875 Z M 42.015625 122.875 " fill-opacity="1" fill-rule="nonzero"/><g clip-path="url(#94938265d5)"><path fill="#000000" d="M 59.429688 122.875 C 59.429688 123.296875 59.351562 123.703125 59.1875 124.09375 C 59.027344 124.484375 58.796875 124.832031 58.496094 125.128906 C 58.199219 125.429688 57.855469 125.660156 57.464844 125.820312 C 57.074219 125.980469 56.667969 126.0625 56.242188 126.0625 C 55.820312 126.0625 55.414062 125.980469 55.023438 125.820312 C 54.632812 125.660156 54.289062 125.429688 53.992188 125.128906 C 53.691406 124.832031 53.460938 124.484375 53.300781 124.09375 C 53.136719 123.703125 53.058594 123.296875 53.058594 122.875 C 53.058594 122.453125 53.136719 122.046875 53.300781 121.65625 C 53.460938 121.265625 53.691406 120.921875 53.992188 120.621094 C 54.289062 120.324219 54.632812 120.09375 55.023438 119.933594 C 55.414062 119.769531 55.820312 119.691406 56.242188 119.691406 C 56.667969 119.691406 57.074219 119.769531 57.464844 119.933594 C 57.855469 120.09375 58.199219 120.324219 58.496094 120.621094 C 58.796875 120.921875 59.027344 121.265625 59.1875 121.65625 C 59.351562 122.046875 59.429688 122.453125 59.429688 122.875 Z M 59.429688 122.875 " fill-opacity="1" fill-rule="nonzero"/></g><g clip-path="url(#44b7ea41f2)"><path fill="#000000" d="M 7.179688 146.8125 C 7.179688 147.238281 7.101562 147.644531 6.9375 148.035156 C 6.777344 148.421875 6.546875 148.769531 6.25 149.066406 C 5.949219 149.367188 5.605469 149.597656 5.214844 149.757812 C 4.824219 149.917969 4.417969 150 3.996094 150 C 3.574219 150 3.164062 149.917969 2.777344 149.757812 C 2.386719 149.597656 2.039062 149.367188 1.742188 149.066406 C 1.441406 148.769531 1.210938 148.421875 1.050781 148.035156 C 0.890625 147.644531 0.808594 147.238281 0.808594 146.8125 C 0.808594 146.390625 0.890625 145.984375 1.050781 145.59375 C 1.210938 145.203125 1.441406 144.859375 1.742188 144.5625 C 2.039062 144.261719 2.386719 144.03125 2.777344 143.871094 C 3.164062 143.707031 3.574219 143.628906 3.996094 143.628906 C 4.417969 143.628906 4.824219 143.707031 5.214844 143.871094 C 5.605469 144.03125 5.949219 144.261719 6.25 144.5625 C 6.546875 144.859375 6.777344 145.203125 6.9375 145.59375 C 7.101562 145.984375 7.179688 146.390625 7.179688 146.8125 Z M 7.179688 146.8125 " fill-opacity="1" fill-rule="nonzero"/></g><path fill="#000000" d="M 24.597656 146.8125 C 24.597656 147.238281 24.515625 147.644531 24.355469 148.035156 C 24.195312 148.421875 23.964844 148.769531 23.664062 149.066406 C 23.367188 149.367188 23.019531 149.597656 22.628906 149.757812 C 22.242188 149.917969 21.832031 150 21.410156 150 C 20.988281 150 20.582031 149.917969 20.191406 149.757812 C 19.800781 149.597656 19.457031 149.367188 19.15625 149.066406 C 18.859375 148.769531 18.628906 148.421875 18.46875 148.035156 C 18.304688 147.644531 18.226562 147.238281 18.226562 146.8125 C 18.226562 146.390625 18.304688 145.984375 18.46875 145.59375 C 18.628906 145.203125 18.859375 144.859375 19.15625 144.5625 C 19.457031 144.261719 19.800781 144.03125 20.191406 143.871094 C 20.582031 143.707031 20.988281 143.628906 21.410156 143.628906 C 21.832031 143.628906 22.242188 143.707031 22.628906 143.871094 C 23.019531 144.03125 23.367188 144.261719 23.664062 144.5625 C 23.964844 144.859375 24.195312 145.203125 24.355469 145.59375 C 24.515625 145.984375 24.597656 146.390625 24.597656 146.8125 Z M 24.597656 146.8125 " fill-opacity="1" fill-rule="nonzero"/><path fill="#000000" d="M 42.015625 146.8125 C 42.015625 147.238281 41.933594 147.644531 41.773438 148.035156 C 41.609375 148.421875 41.378906 148.769531 41.082031 149.066406 C 40.78125 149.367188 40.4375 149.597656 40.046875 149.757812 C 39.65625 149.917969 39.25 150 38.828125 150 C 38.40625 150 38 149.917969 37.609375 149.757812 C 37.21875 149.597656 36.875 149.367188 36.574219 149.066406 C 36.277344 148.769531 36.046875 148.421875 35.882812 148.035156 C 35.722656 147.644531 35.640625 147.238281 35.640625 146.8125 C 35.640625 146.390625 35.722656 145.984375 35.882812 145.59375 C 36.046875 145.203125 36.277344 144.859375 36.574219 144.5625 C 36.875 144.261719 37.21875 144.03125 37.609375 143.871094 C 38 143.707031 38.40625 143.628906 38.828125 143.628906 C 39.25 143.628906 39.65625 143.707031 40.046875 143.871094 C 40.4375 144.03125 40.78125 144.261719 41.082031 144.5625 C 41.378906 144.859375 41.609375 145.203125 41.773438 145.59375 C 41.933594 145.984375 42.015625 146.390625 42.015625 146.8125 Z M 42.015625 146.8125 " fill-opacity="1" fill-rule="nonzero"/><g clip-path="url(#10e00bed61)"><path fill="#000000" d="M 59.429688 146.8125 C 59.429688 147.238281 59.351562 147.644531 59.1875 148.035156 C 59.027344 148.421875 58.796875 148.769531 58.496094 149.066406 C 58.199219 149.367188 57.855469 149.597656 57.464844 149.757812 C 57.074219 149.917969 56.667969 150 56.242188 150 C 55.820312 150 55.414062 149.917969 55.023438 149.757812 C 54.632812 149.597656 54.289062 149.367188 53.992188 149.066406 C 53.691406 148.769531 53.460938 148.421875 53.300781 148.035156 C 53.136719 147.644531 53.058594 147.238281 53.058594 146.8125 C 53.058594 146.390625 53.136719 145.984375 53.300781 145.59375 C 53.460938 145.203125 53.691406 144.859375 53.992188 144.5625 C 54.289062 144.261719 54.632812 144.03125 55.023438 143.871094 C 55.414062 143.707031 55.820312 143.628906 56.242188 143.628906 C 56.667969 143.628906 57.074219 143.707031 57.464844 143.871094 C 57.855469 144.03125 58.199219 144.261719 58.496094 144.5625 C 58.796875 144.859375 59.027344 145.203125 59.1875 145.59375 C 59.351562 145.984375 59.429688 146.390625 59.429688 146.8125 Z M 59.429688 146.8125 " fill-opacity="1" fill-rule="nonzero"/></g><g clip-path="url(#346cd98e6b)"><path fill="#000000" d="M 6.949219 51.0625 C 6.949219 51.484375 6.871094 51.890625 6.707031 52.28125 C 6.546875 52.671875 6.316406 53.015625 6.015625 53.316406 C 5.71875 53.613281 5.375 53.84375 4.984375 54.007812 C 4.59375 54.167969 4.1875 54.25 3.761719 54.25 C 3.339844 54.25 2.933594 54.167969 2.542969 54.007812 C 2.152344 53.84375 1.808594 53.613281 1.511719 53.316406 C 1.210938 53.015625 0.980469 52.671875 0.820312 52.28125 C 0.65625 51.890625 0.578125 51.484375 0.578125 51.0625 C 0.578125 50.640625 0.65625 50.234375 0.820312 49.84375 C 0.980469 49.453125 1.210938 49.109375 1.511719 48.808594 C 1.808594 48.511719 2.152344 48.28125 2.542969 48.117188 C 2.933594 47.957031 3.339844 47.875 3.761719 47.875 C 4.1875 47.875 4.59375 47.957031 4.984375 48.117188 C 5.375 48.28125 5.71875 48.511719 6.015625 48.808594 C 6.316406 49.109375 6.546875 49.453125 6.707031 49.84375 C 6.871094 50.234375 6.949219 50.640625 6.949219 51.0625 Z M 6.949219 51.0625 " fill-opacity="1" fill-rule="nonzero"/></g><path fill="#000000" d="M 24.367188 51.0625 C 24.367188 51.484375 24.285156 51.890625 24.125 52.28125 C 23.960938 52.671875 23.730469 53.015625 23.433594 53.316406 C 23.132812 53.613281 22.789062 53.84375 22.398438 54.007812 C 22.007812 54.167969 21.601562 54.25 21.179688 54.25 C 20.757812 54.25 20.351562 54.167969 19.960938 54.007812 C 19.570312 53.84375 19.226562 53.613281 18.925781 53.316406 C 18.628906 53.015625 18.398438 52.671875 18.234375 52.28125 C 18.074219 51.890625 17.992188 51.484375 17.992188 51.0625 C 17.992188 50.640625 18.074219 50.234375 18.234375 49.84375 C 18.398438 49.453125 18.628906 49.109375 18.925781 48.808594 C 19.226562 48.511719 19.570312 48.28125 19.960938 48.117188 C 20.351562 47.957031 20.757812 47.875 21.179688 47.875 C 21.601562 47.875 22.007812 47.957031 22.398438 48.117188 C 22.789062 48.28125 23.132812 48.511719 23.433594 48.808594 C 23.730469 49.109375 23.960938 49.453125 24.125 49.84375 C 24.285156 50.234375 24.367188 50.640625 24.367188 51.0625 Z M 24.367188 51.0625 " fill-opacity="1" fill-rule="nonzero"/><path fill="#000000" d="M 41.78125 51.0625 C 41.78125 51.484375 41.703125 51.890625 41.539062 52.28125 C 41.378906 52.671875 41.148438 53.015625 40.851562 53.316406 C 40.550781 53.613281 40.207031 53.84375 39.816406 54.007812 C 39.425781 54.167969 39.019531 54.25 38.597656 54.25 C 38.175781 54.25 37.765625 54.167969 37.378906 54.007812 C 36.988281 53.84375 36.640625 53.613281 36.34375 53.316406 C 36.042969 53.015625 35.8125 52.671875 35.652344 52.28125 C 35.492188 51.890625 35.410156 51.484375 35.410156 51.0625 C 35.410156 50.640625 35.492188 50.234375 35.652344 49.84375 C 35.8125 49.453125 36.042969 49.109375 36.34375 48.808594 C 36.640625 48.511719 36.988281 48.28125 37.378906 48.117188 C 37.765625 47.957031 38.175781 47.875 38.597656 47.875 C 39.019531 47.875 39.425781 47.957031 39.816406 48.117188 C 40.207031 48.28125 40.550781 48.511719 40.851562 48.808594 C 41.148438 49.109375 41.378906 49.453125 41.539062 49.84375 C 41.703125 50.234375 41.78125 50.640625 41.78125 51.0625 Z M 41.78125 51.0625 " fill-opacity="1" fill-rule="nonzero"/><g clip-path="url(#b321d781c2)"><path fill="#000000" d="M 59.199219 51.0625 C 59.199219 51.484375 59.117188 51.890625 58.957031 52.28125 C 58.796875 52.671875 58.566406 53.015625 58.265625 53.316406 C 57.96875 53.613281 57.621094 53.84375 57.230469 54.007812 C 56.84375 54.167969 56.433594 54.25 56.011719 54.25 C 55.589844 54.25 55.183594 54.167969 54.792969 54.007812 C 54.402344 53.84375 54.058594 53.613281 53.757812 53.316406 C 53.460938 53.015625 53.230469 52.671875 53.070312 52.28125 C 52.90625 51.890625 52.828125 51.484375 52.828125 51.0625 C 52.828125 50.640625 52.90625 50.234375 53.070312 49.84375 C 53.230469 49.453125 53.460938 49.109375 53.757812 48.808594 C 54.058594 48.511719 54.402344 48.28125 54.792969 48.117188 C 55.183594 47.957031 55.589844 47.875 56.011719 47.875 C 56.433594 47.875 56.84375 47.957031 57.230469 48.117188 C 57.621094 48.28125 57.96875 48.511719 58.265625 48.808594 C 58.566406 49.109375 58.796875 49.453125 58.957031 49.84375 C 59.117188 50.234375 59.199219 50.640625 59.199219 51.0625 Z M 59.199219 51.0625 " fill-opacity="1" fill-rule="nonzero"/></g><g clip-path="url(#5dd77aae4b)"><path fill="#000000" d="M 6.949219 27.125 C 6.949219 27.546875 6.871094 27.953125 6.707031 28.34375 C 6.546875 28.734375 6.316406 29.078125 6.015625 29.378906 C 5.71875 29.675781 5.375 29.90625 4.984375 30.070312 C 4.59375 30.230469 4.1875 30.3125 3.761719 30.3125 C 3.339844 30.3125 2.933594 30.230469 2.542969 30.070312 C 2.152344 29.90625 1.808594 29.675781 1.511719 29.378906 C 1.210938 29.078125 0.980469 28.734375 0.820312 28.34375 C 0.65625 27.953125 0.578125 27.546875 0.578125 27.125 C 0.578125 26.703125 0.65625 26.296875 0.820312 25.90625 C 0.980469 25.515625 1.210938 25.171875 1.511719 24.871094 C 1.808594 24.574219 2.152344 24.34375 2.542969 24.179688 C 2.933594 24.019531 3.339844 23.9375 3.761719 23.9375 C 4.1875 23.9375 4.59375 24.019531 4.984375 24.179688 C 5.375 24.34375 5.71875 24.574219 6.015625 24.871094 C 6.316406 25.171875 6.546875 25.515625 6.707031 25.90625 C 6.871094 26.296875 6.949219 26.703125 6.949219 27.125 Z M 6.949219 27.125 " fill-opacity="1" fill-rule="nonzero"/></g><path fill="#000000" d="M 24.367188 27.125 C 24.367188 27.546875 24.285156 27.953125 24.125 28.34375 C 23.960938 28.734375 23.730469 29.078125 23.433594 29.378906 C 23.132812 29.675781 22.789062 29.90625 22.398438 30.070312 C 22.007812 30.230469 21.601562 30.3125 21.179688 30.3125 C 20.757812 30.3125 20.351562 30.230469 19.960938 30.070312 C 19.570312 29.90625 19.226562 29.675781 18.925781 29.378906 C 18.628906 29.078125 18.398438 28.734375 18.234375 28.34375 C 18.074219 27.953125 17.992188 27.546875 17.992188 27.125 C 17.992188 26.703125 18.074219 26.296875 18.234375 25.90625 C 18.398438 25.515625 18.628906 25.171875 18.925781 24.871094 C 19.226562 24.574219 19.570312 24.34375 19.960938 24.179688 C 20.351562 24.019531 20.757812 23.9375 21.179688 23.9375 C 21.601562 23.9375 22.007812 24.019531 22.398438 24.179688 C 22.789062 24.34375 23.132812 24.574219 23.433594 24.871094 C 23.730469 25.171875 23.960938 25.515625 24.125 25.90625 C 24.285156 26.296875 24.367188 26.703125 24.367188 27.125 Z M 24.367188 27.125 " fill-opacity="1" fill-rule="nonzero"/><path fill="#000000" d="M 41.78125 27.125 C 41.78125 27.546875 41.703125 27.953125 41.539062 28.34375 C 41.378906 28.734375 41.148438 29.078125 40.851562 29.378906 C 40.550781 29.675781 40.207031 29.90625 39.816406 30.070312 C 39.425781 30.230469 39.019531 30.3125 38.597656 30.3125 C 38.175781 30.3125 37.765625 30.230469 37.378906 30.070312 C 36.988281 29.90625 36.640625 29.675781 36.34375 29.378906 C 36.042969 29.078125 35.8125 28.734375 35.652344 28.34375 C 35.492188 27.953125 35.410156 27.546875 35.410156 27.125 C 35.410156 26.703125 35.492188 26.296875 35.652344 25.90625 C 35.8125 25.515625 36.042969 25.171875 36.34375 24.871094 C 36.640625 24.574219 36.988281 24.34375 37.378906 24.179688 C 37.765625 24.019531 38.175781 23.9375 38.597656 23.9375 C 39.019531 23.9375 39.425781 24.019531 39.816406 24.179688 C 40.207031 24.34375 40.550781 24.574219 40.851562 24.871094 C 41.148438 25.171875 41.378906 25.515625 41.539062 25.90625 C 41.703125 26.296875 41.78125 26.703125 41.78125 27.125 Z M 41.78125 27.125 " fill-opacity="1" fill-rule="nonzero"/><g clip-path="url(#de83f53d45)"><path fill="#000000" d="M 59.199219 27.125 C 59.199219 27.546875 59.117188 27.953125 58.957031 28.34375 C 58.796875 28.734375 58.566406 29.078125 58.265625 29.378906 C 57.96875 29.675781 57.621094 29.90625 57.230469 30.070312 C 56.84375 30.230469 56.433594 30.3125 56.011719 30.3125 C 55.589844 30.3125 55.183594 30.230469 54.792969 30.070312 C 54.402344 29.90625 54.058594 29.675781 53.757812 29.378906 C 53.460938 29.078125 53.230469 28.734375 53.070312 28.34375 C 52.90625 27.953125 52.828125 27.546875 52.828125 27.125 C 52.828125 26.703125 52.90625 26.296875 53.070312 25.90625 C 53.230469 25.515625 53.460938 25.171875 53.757812 24.871094 C 54.058594 24.574219 54.402344 24.34375 54.792969 24.179688 C 55.183594 24.019531 55.589844 23.9375 56.011719 23.9375 C 56.433594 23.9375 56.84375 24.019531 57.230469 24.179688 C 57.621094 24.34375 57.96875 24.574219 58.265625 24.871094 C 58.566406 25.171875 58.796875 25.515625 58.957031 25.90625 C 59.117188 26.296875 59.199219 26.703125 59.199219 27.125 Z M 59.199219 27.125 " fill-opacity="1" fill-rule="nonzero"/></g><g clip-path="url(#8e246378b0)"><path fill="#000000" d="M 7.179688 3.1875 C 7.179688 3.609375 7.101562 4.015625 6.9375 4.40625 C 6.777344 4.796875 6.546875 5.140625 6.25 5.441406 C 5.949219 5.738281 5.605469 5.96875 5.214844 6.128906 C 4.824219 6.292969 4.417969 6.375 3.996094 6.375 C 3.574219 6.375 3.164062 6.292969 2.777344 6.128906 C 2.386719 5.96875 2.039062 5.738281 1.742188 5.441406 C 1.441406 5.140625 1.210938 4.796875 1.050781 4.40625 C 0.890625 4.015625 0.808594 3.609375 0.808594 3.1875 C 0.808594 2.765625 0.890625 2.359375 1.050781 1.96875 C 1.210938 1.578125 1.441406 1.230469 1.742188 0.933594 C 2.039062 0.632812 2.386719 0.402344 2.777344 0.242188 C 3.164062 0.0820312 3.574219 0 3.996094 0 C 4.417969 0 4.824219 0.0820312 5.214844 0.242188 C 5.605469 0.402344 5.949219 0.632812 6.25 0.933594 C 6.546875 1.230469 6.777344 1.578125 6.9375 1.96875 C 7.101562 2.359375 7.179688 2.765625 7.179688 3.1875 Z M 7.179688 3.1875 " fill-opacity="1" fill-rule="nonzero"/></g><path fill="#000000" d="M 24.367188 3.1875 C 24.367188 3.609375 24.285156 4.015625 24.125 4.40625 C 23.960938 4.796875 23.730469 5.140625 23.433594 5.441406 C 23.132812 5.738281 22.789062 5.96875 22.398438 6.128906 C 22.007812 6.292969 21.601562 6.375 21.179688 6.375 C 20.757812 6.375 20.351562 6.292969 19.960938 6.128906 C 19.570312 5.96875 19.226562 5.738281 18.925781 5.441406 C 18.628906 5.140625 18.398438 4.796875 18.234375 4.40625 C 18.074219 4.015625 17.992188 3.609375 17.992188 3.1875 C 17.992188 2.765625 18.074219 2.359375 18.234375 1.96875 C 18.398438 1.578125 18.628906 1.230469 18.925781 0.933594 C 19.226562 0.632812 19.570312 0.402344 19.960938 0.242188 C 20.351562 0.0820312 20.757812 0 21.179688 0 C 21.601562 0 22.007812 0.0820312 22.398438 0.242188 C 22.789062 0.402344 23.132812 0.632812 23.433594 0.933594 C 23.730469 1.230469 23.960938 1.578125 24.125 1.96875 C 24.285156 2.359375 24.367188 2.765625 24.367188 3.1875 Z M 24.367188 3.1875 " fill-opacity="1" fill-rule="nonzero"/><path fill="#000000" d="M 41.78125 3.1875 C 41.78125 3.609375 41.703125 4.015625 41.539062 4.40625 C 41.378906 4.796875 41.148438 5.140625 40.851562 5.441406 C 40.550781 5.738281 40.207031 5.96875 39.816406 6.128906 C 39.425781 6.292969 39.019531 6.375 38.597656 6.375 C 38.175781 6.375 37.765625 6.292969 37.378906 6.128906 C 36.988281 5.96875 36.640625 5.738281 36.34375 5.441406 C 36.042969 5.140625 35.8125 4.796875 35.652344 4.40625 C 35.492188 4.015625 35.410156 3.609375 35.410156 3.1875 C 35.410156 2.765625 35.492188 2.359375 35.652344 1.96875 C 35.8125 1.578125 36.042969 1.230469 36.34375 0.933594 C 36.640625 0.632812 36.988281 0.402344 37.378906 0.242188 C 37.765625 0.0820312 38.175781 0 38.597656 0 C 39.019531 0 39.425781 0.0820312 39.816406 0.242188 C 40.207031 0.402344 40.550781 0.632812 40.851562 0.933594 C 41.148438 1.230469 41.378906 1.578125 41.539062 1.96875 C 41.703125 2.359375 41.78125 2.765625 41.78125 3.1875 Z M 41.78125 3.1875 " fill-opacity="1" fill-rule="nonzero"/><g clip-path="url(#bec59d02e3)"><path fill="#000000" d="M 59.199219 3.1875 C 59.199219 3.609375 59.117188 4.015625 58.957031 4.40625 C 58.796875 4.796875 58.566406 5.140625 58.265625 5.441406 C 57.96875 5.738281 57.621094 5.96875 57.230469 6.128906 C 56.84375 6.292969 56.433594 6.375 56.011719 6.375 C 55.589844 6.375 55.183594 6.292969 54.792969 6.128906 C 54.402344 5.96875 54.058594 5.738281 53.757812 5.441406 C 53.460938 5.140625 53.230469 4.796875 53.070312 4.40625 C 52.90625 4.015625 52.828125 3.609375 52.828125 3.1875 C 52.828125 2.765625 52.90625 2.359375 53.070312 1.96875 C 53.230469 1.578125 53.460938 1.230469 53.757812 0.933594 C 54.058594 0.632812 54.402344 0.402344 54.792969 0.242188 C 55.183594 0.0820312 55.589844 0 56.011719 0 C 56.433594 0 56.84375 0.0820312 57.230469 0.242188 C 57.621094 0.402344 57.96875 0.632812 58.265625 0.933594 C 58.566406 1.230469 58.796875 1.578125 58.957031 1.96875 C 59.117188 2.359375 59.199219 2.765625 59.199219 3.1875 Z M 59.199219 3.1875 " fill-opacity="1" fill-rule="nonzero"/></g></svg>