<svg xmlns="http://www.w3.org/2000/svg" xmlns:xlink="http://www.w3.org/1999/xlink" width="200" zoomAndPan="magnify" viewBox="0 0 150 31.5" height="42" preserveAspectRatio="xMidYMid meet" version="1.0"><path fill="#000000" d="M 7.144531 29.195312 L 6.730469 29.398438 C 5.324219 30.105469 3.605469 29.539062 2.898438 28.140625 C 2.191406 26.738281 2.757812 25.035156 4.167969 24.332031 L 4.582031 24.125 C 5.988281 23.421875 7.703125 23.984375 8.414062 25.386719 C 9.121094 26.785156 8.550781 28.488281 7.144531 29.195312 Z M 7.144531 29.195312 " fill-opacity="1" fill-rule="nonzero"/><path fill="#000000" d="M 22.402344 29.195312 L 21.988281 29.398438 C 20.582031 30.105469 18.863281 29.539062 18.15625 28.140625 C 17.449219 26.738281 18.015625 25.035156 19.425781 24.332031 L 19.839844 24.125 C 21.246094 23.421875 22.960938 23.984375 23.671875 25.386719 C 24.378906 26.785156 23.808594 28.488281 22.402344 29.195312 Z M 22.402344 29.195312 " fill-opacity="1" fill-rule="nonzero"/><path fill="#000000" d="M 37.660156 29.195312 L 37.246094 29.398438 C 35.839844 30.105469 34.121094 29.539062 33.414062 28.140625 C 32.707031 26.738281 33.273438 25.035156 34.683594 24.332031 L 35.097656 24.125 C 36.503906 23.421875 38.21875 23.984375 38.929688 25.386719 C 39.636719 26.785156 39.066406 28.488281 37.660156 29.195312 Z M 37.660156 29.195312 " fill-opacity="1" fill-rule="nonzero"/><path fill="#000000" d="M 52.917969 29.195312 L 52.503906 29.398438 C 51.097656 30.105469 49.378906 29.539062 48.671875 28.140625 C 47.964844 26.738281 48.53125 25.035156 49.941406 24.332031 L 50.355469 24.125 C 51.761719 23.421875 53.476562 23.984375 54.1875 25.386719 C 54.894531 26.785156 54.324219 28.488281 52.917969 29.195312 Z M 52.917969 29.195312 " fill-opacity="1" fill-rule="nonzero"/><path fill="#000000" d="M 68.175781 29.195312 L 67.761719 29.398438 C 66.355469 30.105469 64.636719 29.539062 63.929688 28.140625 C 63.222656 26.738281 63.789062 25.035156 65.199219 24.332031 L 65.613281 24.125 C 67.019531 23.421875 68.734375 23.984375 69.445312 25.386719 C 70.152344 26.785156 69.585938 28.488281 68.175781 29.195312 Z M 68.175781 29.195312 " fill-opacity="1" fill-rule="nonzero"/><path fill="#000000" d="M 83.433594 29.195312 L 83.019531 29.398438 C 81.613281 30.105469 79.894531 29.539062 79.1875 28.140625 C 78.480469 26.738281 79.046875 25.035156 80.457031 24.332031 L 80.871094 24.125 C 82.277344 23.421875 83.992188 23.984375 84.703125 25.386719 C 85.410156 26.785156 84.84375 28.488281 83.433594 29.195312 Z M 83.433594 29.195312 " fill-opacity="1" fill-rule="nonzero"/><path fill="#000000" d="M 98.691406 29.195312 L 98.277344 29.398438 C 96.871094 30.105469 95.152344 29.539062 94.445312 28.140625 C 93.738281 26.738281 94.304688 25.035156 95.714844 24.332031 L 96.128906 24.125 C 97.535156 23.421875 99.25 23.984375 99.960938 25.386719 C 100.667969 26.785156 100.101562 28.488281 98.691406 29.195312 Z M 98.691406 29.195312 " fill-opacity="1" fill-rule="nonzero"/><path fill="#000000" d="M 113.949219 29.195312 L 113.535156 29.398438 C 112.128906 30.105469 110.410156 29.539062 109.703125 28.140625 C 108.996094 26.738281 109.5625 25.035156 110.972656 24.332031 L 111.386719 24.125 C 112.792969 23.421875 114.511719 23.984375 115.21875 25.386719 C 115.925781 26.785156 115.359375 28.488281 113.949219 29.195312 Z M 113.949219 29.195312 " fill-opacity="1" fill-rule="nonzero"/><path fill="#000000" d="M 129.609375 28.792969 L 129.195312 29 C 127.789062 29.703125 126.070312 29.140625 125.363281 27.742188 C 124.65625 26.339844 125.222656 24.636719 126.632812 23.933594 L 127.046875 23.726562 C 128.453125 23.023438 130.167969 23.585938 130.878906 24.984375 C 131.585938 26.386719 131.019531 28.089844 129.609375 28.792969 Z M 129.609375 28.792969 " fill-opacity="1" fill-rule="nonzero"/><path fill="#000000" d="M 15.144531 17.988281 L 14.730469 18.195312 C 13.320312 18.898438 11.605469 18.335938 10.898438 16.933594 C 10.1875 15.535156 10.757812 13.828125 12.164062 13.125 L 12.578125 12.917969 C 13.988281 12.214844 15.703125 12.78125 16.410156 14.179688 C 17.117188 15.582031 16.550781 17.285156 15.144531 17.988281 Z M 15.144531 17.988281 " fill-opacity="1" fill-rule="nonzero"/><path fill="#000000" d="M 30.402344 17.988281 L 29.988281 18.195312 C 28.578125 18.898438 26.863281 18.335938 26.15625 16.933594 C 25.445312 15.535156 26.015625 13.828125 27.421875 13.125 L 27.835938 12.921875 C 29.246094 12.214844 30.960938 12.78125 31.667969 14.179688 C 32.375 15.582031 31.808594 17.285156 30.402344 17.988281 Z M 30.402344 17.988281 " fill-opacity="1" fill-rule="nonzero"/><path fill="#000000" d="M 45.660156 17.988281 L 45.246094 18.195312 C 43.835938 18.898438 42.121094 18.335938 41.414062 16.933594 C 40.703125 15.535156 41.273438 13.828125 42.679688 13.125 L 43.09375 12.917969 C 44.503906 12.214844 46.21875 12.78125 46.925781 14.179688 C 47.632812 15.582031 47.066406 17.285156 45.660156 17.988281 Z M 45.660156 17.988281 " fill-opacity="1" fill-rule="nonzero"/><path fill="#000000" d="M 60.917969 17.988281 L 60.503906 18.195312 C 59.09375 18.898438 57.378906 18.335938 56.671875 16.933594 C 55.960938 15.535156 56.53125 13.828125 57.9375 13.125 L 58.351562 12.917969 C 59.761719 12.214844 61.476562 12.78125 62.183594 14.179688 C 62.890625 15.582031 62.324219 17.285156 60.917969 17.988281 Z M 60.917969 17.988281 " fill-opacity="1" fill-rule="nonzero"/><path fill="#000000" d="M 76.175781 17.988281 L 75.761719 18.195312 C 74.351562 18.898438 72.636719 18.335938 71.929688 16.933594 C 71.222656 15.535156 71.789062 13.828125 73.195312 13.125 L 73.609375 12.917969 C 75.019531 12.214844 76.734375 12.78125 77.441406 14.179688 C 78.152344 15.582031 77.582031 17.285156 76.175781 17.988281 Z M 76.175781 17.988281 " fill-opacity="1" fill-rule="nonzero"/><path fill="#000000" d="M 91.433594 17.988281 L 91.019531 18.195312 C 89.609375 18.898438 87.894531 18.335938 87.1875 16.933594 C 86.480469 15.535156 87.046875 13.828125 88.453125 13.125 L 88.867188 12.917969 C 90.277344 12.214844 91.992188 12.78125 92.699219 14.179688 C 93.410156 15.582031 92.839844 17.285156 91.433594 17.988281 Z M 91.433594 17.988281 " fill-opacity="1" fill-rule="nonzero"/><path fill="#000000" d="M 106.691406 17.988281 L 106.277344 18.195312 C 104.867188 18.898438 103.152344 18.335938 102.445312 16.933594 C 101.738281 15.535156 102.304688 13.828125 103.714844 13.125 L 104.125 12.917969 C 105.535156 12.214844 107.25 12.78125 107.957031 14.179688 C 108.667969 15.582031 108.097656 17.285156 106.691406 17.988281 Z M 106.691406 17.988281 " fill-opacity="1" fill-rule="nonzero"/><path fill="#000000" d="M 121.949219 17.988281 L 121.535156 18.195312 C 120.125 18.898438 118.410156 18.335938 117.703125 16.933594 C 116.996094 15.535156 117.5625 13.828125 118.972656 13.125 L 119.382812 12.917969 C 120.792969 12.214844 122.507812 12.78125 123.214844 14.179688 C 123.925781 15.578125 123.355469 17.285156 121.949219 17.988281 Z M 121.949219 17.988281 " fill-opacity="1" fill-rule="nonzero"/><path fill="#000000" d="M 137.609375 17.589844 L 137.195312 17.796875 C 135.785156 18.5 134.070312 17.933594 133.363281 16.535156 C 132.65625 15.136719 133.222656 13.429688 134.628906 12.726562 L 135.042969 12.519531 C 136.453125 11.816406 138.167969 12.382812 138.875 13.78125 C 139.585938 15.179688 139.015625 16.886719 137.609375 17.589844 Z M 137.609375 17.589844 " fill-opacity="1" fill-rule="nonzero"/><path fill="#000000" d="M 23.289062 6.785156 L 22.875 6.992188 C 21.46875 7.695312 19.75 7.128906 19.042969 5.730469 C 18.335938 4.332031 18.902344 2.625 20.3125 1.921875 L 20.726562 1.714844 C 22.132812 1.011719 23.851562 1.574219 24.558594 2.976562 C 25.265625 4.375 24.699219 6.082031 23.289062 6.785156 Z M 23.289062 6.785156 " fill-opacity="1" fill-rule="nonzero"/><path fill="#000000" d="M 38.546875 6.785156 L 38.132812 6.992188 C 36.726562 7.695312 35.007812 7.128906 34.300781 5.730469 C 33.59375 4.332031 34.160156 2.625 35.570312 1.921875 L 35.984375 1.714844 C 37.390625 1.011719 39.109375 1.574219 39.816406 2.976562 C 40.523438 4.375 39.957031 6.082031 38.546875 6.785156 Z M 38.546875 6.785156 " fill-opacity="1" fill-rule="nonzero"/><path fill="#000000" d="M 53.804688 6.785156 L 53.390625 6.992188 C 51.984375 7.695312 50.265625 7.128906 49.558594 5.730469 C 48.851562 4.332031 49.417969 2.625 50.828125 1.921875 L 51.242188 1.714844 C 52.648438 1.011719 54.367188 1.574219 55.074219 2.976562 C 55.78125 4.375 55.214844 6.082031 53.804688 6.785156 Z M 53.804688 6.785156 " fill-opacity="1" fill-rule="nonzero"/><path fill="#000000" d="M 69.0625 6.785156 L 68.648438 6.992188 C 67.242188 7.695312 65.527344 7.128906 64.816406 5.730469 C 64.109375 4.332031 64.675781 2.625 66.085938 1.921875 L 66.5 1.714844 C 67.90625 1.011719 69.625 1.574219 70.332031 2.976562 C 71.039062 4.375 70.472656 6.082031 69.0625 6.785156 Z M 69.0625 6.785156 " fill-opacity="1" fill-rule="nonzero"/><path fill="#000000" d="M 84.320312 6.785156 L 83.90625 6.992188 C 82.5 7.695312 80.785156 7.128906 80.074219 5.730469 C 79.367188 4.332031 79.933594 2.625 81.34375 1.921875 L 81.757812 1.714844 C 83.164062 1.011719 84.882812 1.574219 85.589844 2.976562 C 86.296875 4.375 85.730469 6.082031 84.320312 6.785156 Z M 84.320312 6.785156 " fill-opacity="1" fill-rule="nonzero"/><path fill="#000000" d="M 99.578125 6.785156 L 99.164062 6.992188 C 97.757812 7.695312 96.042969 7.128906 95.332031 5.730469 C 94.625 4.332031 95.191406 2.625 96.601562 1.921875 L 97.015625 1.714844 C 98.421875 1.011719 100.140625 1.574219 100.847656 2.976562 C 101.554688 4.375 100.988281 6.082031 99.578125 6.785156 Z M 99.578125 6.785156 " fill-opacity="1" fill-rule="nonzero"/><path fill="#000000" d="M 114.835938 6.785156 L 114.421875 6.992188 C 113.015625 7.695312 111.300781 7.128906 110.589844 5.730469 C 109.882812 4.332031 110.449219 2.625 111.859375 1.921875 L 112.273438 1.714844 C 113.679688 1.011719 115.398438 1.574219 116.105469 2.976562 C 116.8125 4.375 116.246094 6.082031 114.835938 6.785156 Z M 114.835938 6.785156 " fill-opacity="1" fill-rule="nonzero"/><path fill="#000000" d="M 130.09375 6.785156 L 129.679688 6.992188 C 128.273438 7.695312 126.558594 7.128906 125.847656 5.730469 C 125.140625 4.332031 125.710938 2.625 127.117188 1.921875 L 127.53125 1.714844 C 128.9375 1.011719 130.65625 1.574219 131.363281 2.976562 C 132.070312 4.375 131.503906 6.082031 130.09375 6.785156 Z M 130.09375 6.785156 " fill-opacity="1" fill-rule="nonzero"/><path fill="#000000" d="M 145.753906 6.386719 L 145.339844 6.589844 C 143.933594 7.292969 142.21875 6.730469 141.507812 5.332031 C 140.800781 3.929688 141.367188 2.226562 142.777344 1.523438 L 143.191406 1.316406 C 144.597656 0.613281 146.316406 1.175781 147.023438 2.578125 C 147.730469 3.976562 147.164062 5.679688 145.753906 6.386719 Z M 145.753906 6.386719 " fill-opacity="1" fill-rule="nonzero"/><path fill="#000000" d="M 7.144531 29.195312 L 6.730469 29.398438 C 5.324219 30.105469 3.605469 29.539062 2.898438 28.140625 C 2.191406 26.738281 2.757812 25.035156 4.167969 24.332031 L 4.582031 24.125 C 5.988281 23.421875 7.703125 23.984375 8.414062 25.386719 C 9.121094 26.785156 8.550781 28.488281 7.144531 29.195312 Z M 7.144531 29.195312 " fill-opacity="1" fill-rule="nonzero"/><path fill="#000000" d="M 22.402344 29.195312 L 21.988281 29.398438 C 20.582031 30.105469 18.863281 29.539062 18.15625 28.140625 C 17.449219 26.738281 18.015625 25.035156 19.425781 24.332031 L 19.839844 24.125 C 21.246094 23.421875 22.960938 23.984375 23.671875 25.386719 C 24.378906 26.785156 23.808594 28.488281 22.402344 29.195312 Z M 22.402344 29.195312 " fill-opacity="1" fill-rule="nonzero"/><path fill="#000000" d="M 37.660156 29.195312 L 37.246094 29.398438 C 35.839844 30.105469 34.121094 29.539062 33.414062 28.140625 C 32.707031 26.738281 33.273438 25.035156 34.683594 24.332031 L 35.097656 24.125 C 36.503906 23.421875 38.21875 23.984375 38.929688 25.386719 C 39.636719 26.785156 39.066406 28.488281 37.660156 29.195312 Z M 37.660156 29.195312 " fill-opacity="1" fill-rule="nonzero"/><path fill="#000000" d="M 52.917969 29.195312 L 52.503906 29.398438 C 51.097656 30.105469 49.378906 29.539062 48.671875 28.140625 C 47.964844 26.738281 48.53125 25.035156 49.941406 24.332031 L 50.355469 24.125 C 51.761719 23.421875 53.476562 23.984375 54.1875 25.386719 C 54.894531 26.785156 54.324219 28.488281 52.917969 29.195312 Z M 52.917969 29.195312 " fill-opacity="1" fill-rule="nonzero"/><path fill="#000000" d="M 68.175781 29.195312 L 67.761719 29.398438 C 66.355469 30.105469 64.636719 29.539062 63.929688 28.140625 C 63.222656 26.738281 63.789062 25.035156 65.199219 24.332031 L 65.613281 24.125 C 67.019531 23.421875 68.734375 23.984375 69.445312 25.386719 C 70.152344 26.785156 69.585938 28.488281 68.175781 29.195312 Z M 68.175781 29.195312 " fill-opacity="1" fill-rule="nonzero"/><path fill="#000000" d="M 83.433594 29.195312 L 83.019531 29.398438 C 81.613281 30.105469 79.894531 29.539062 79.1875 28.140625 C 78.480469 26.738281 79.046875 25.035156 80.457031 24.332031 L 80.871094 24.125 C 82.277344 23.421875 83.992188 23.984375 84.703125 25.386719 C 85.410156 26.785156 84.84375 28.488281 83.433594 29.195312 Z M 83.433594 29.195312 " fill-opacity="1" fill-rule="nonzero"/><path fill="#000000" d="M 98.691406 29.195312 L 98.277344 29.398438 C 96.871094 30.105469 95.152344 29.539062 94.445312 28.140625 C 93.738281 26.738281 94.304688 25.035156 95.714844 24.332031 L 96.128906 24.125 C 97.535156 23.421875 99.25 23.984375 99.960938 25.386719 C 100.667969 26.785156 100.101562 28.488281 98.691406 29.195312 Z M 98.691406 29.195312 " fill-opacity="1" fill-rule="nonzero"/><path fill="#000000" d="M 113.949219 29.195312 L 113.535156 29.398438 C 112.128906 30.105469 110.410156 29.539062 109.703125 28.140625 C 108.996094 26.738281 109.5625 25.035156 110.972656 24.332031 L 111.386719 24.125 C 112.792969 23.421875 114.511719 23.984375 115.21875 25.386719 C 115.925781 26.785156 115.359375 28.488281 113.949219 29.195312 Z M 113.949219 29.195312 " fill-opacity="1" fill-rule="nonzero"/><path fill="#000000" d="M 129.609375 28.792969 L 129.195312 29 C 127.789062 29.703125 126.070312 29.140625 125.363281 27.742188 C 124.65625 26.339844 125.222656 24.636719 126.632812 23.933594 L 127.046875 23.726562 C 128.453125 23.023438 130.167969 23.585938 130.878906 24.984375 C 131.585938 26.386719 131.019531 28.089844 129.609375 28.792969 Z M 129.609375 28.792969 " fill-opacity="1" fill-rule="nonzero"/><path fill="#000000" d="M 15.144531 17.988281 L 14.730469 18.195312 C 13.320312 18.898438 11.605469 18.335938 10.898438 16.933594 C 10.1875 15.535156 10.757812 13.828125 12.164062 13.125 L 12.578125 12.917969 C 13.988281 12.214844 15.703125 12.78125 16.410156 14.179688 C 17.117188 15.582031 16.550781 17.285156 15.144531 17.988281 Z M 15.144531 17.988281 " fill-opacity="1" fill-rule="nonzero"/><path fill="#000000" d="M 30.402344 17.988281 L 29.988281 18.195312 C 28.578125 18.898438 26.863281 18.335938 26.15625 16.933594 C 25.445312 15.535156 26.015625 13.828125 27.421875 13.125 L 27.835938 12.921875 C 29.246094 12.214844 30.960938 12.78125 31.667969 14.179688 C 32.375 15.582031 31.808594 17.285156 30.402344 17.988281 Z M 30.402344 17.988281 " fill-opacity="1" fill-rule="nonzero"/><path fill="#000000" d="M 45.660156 17.988281 L 45.246094 18.195312 C 43.835938 18.898438 42.121094 18.335938 41.414062 16.933594 C 40.703125 15.535156 41.273438 13.828125 42.679688 13.125 L 43.09375 12.917969 C 44.503906 12.214844 46.21875 12.78125 46.925781 14.179688 C 47.632812 15.582031 47.066406 17.285156 45.660156 17.988281 Z M 45.660156 17.988281 " fill-opacity="1" fill-rule="nonzero"/><path fill="#000000" d="M 60.917969 17.988281 L 60.503906 18.195312 C 59.09375 18.898438 57.378906 18.335938 56.671875 16.933594 C 55.960938 15.535156 56.53125 13.828125 57.9375 13.125 L 58.351562 12.917969 C 59.761719 12.214844 61.476562 12.78125 62.183594 14.179688 C 62.890625 15.582031 62.324219 17.285156 60.917969 17.988281 Z M 60.917969 17.988281 " fill-opacity="1" fill-rule="nonzero"/><path fill="#000000" d="M 76.175781 17.988281 L 75.761719 18.195312 C 74.351562 18.898438 72.636719 18.335938 71.929688 16.933594 C 71.222656 15.535156 71.789062 13.828125 73.195312 13.125 L 73.609375 12.917969 C 75.019531 12.214844 76.734375 12.78125 77.441406 14.179688 C 78.152344 15.582031 77.582031 17.285156 76.175781 17.988281 Z M 76.175781 17.988281 " fill-opacity="1" fill-rule="nonzero"/><path fill="#000000" d="M 91.433594 17.988281 L 91.019531 18.195312 C 89.609375 18.898438 87.894531 18.335938 87.1875 16.933594 C 86.480469 15.535156 87.046875 13.828125 88.453125 13.125 L 88.867188 12.917969 C 90.277344 12.214844 91.992188 12.78125 92.699219 14.179688 C 93.410156 15.582031 92.839844 17.285156 91.433594 17.988281 Z M 91.433594 17.988281 " fill-opacity="1" fill-rule="nonzero"/><path fill="#000000" d="M 106.691406 17.988281 L 106.277344 18.195312 C 104.867188 18.898438 103.152344 18.335938 102.445312 16.933594 C 101.738281 15.535156 102.304688 13.828125 103.714844 13.125 L 104.125 12.917969 C 105.535156 12.214844 107.25 12.78125 107.957031 14.179688 C 108.667969 15.582031 108.097656 17.285156 106.691406 17.988281 Z M 106.691406 17.988281 " fill-opacity="1" fill-rule="nonzero"/><path fill="#000000" d="M 121.949219 17.988281 L 121.535156 18.195312 C 120.125 18.898438 118.410156 18.335938 117.703125 16.933594 C 116.996094 15.535156 117.5625 13.828125 118.972656 13.125 L 119.382812 12.917969 C 120.792969 12.214844 122.507812 12.78125 123.214844 14.179688 C 123.925781 15.578125 123.355469 17.285156 121.949219 17.988281 Z M 121.949219 17.988281 " fill-opacity="1" fill-rule="nonzero"/><path fill="#000000" d="M 137.609375 17.589844 L 137.195312 17.796875 C 135.785156 18.5 134.070312 17.933594 133.363281 16.535156 C 132.65625 15.136719 133.222656 13.429688 134.628906 12.726562 L 135.042969 12.519531 C 136.453125 11.816406 138.167969 12.382812 138.875 13.78125 C 139.585938 15.179688 139.015625 16.886719 137.609375 17.589844 Z M 137.609375 17.589844 " fill-opacity="1" fill-rule="nonzero"/><path fill="#000000" d="M 23.289062 6.785156 L 22.875 6.992188 C 21.46875 7.695312 19.75 7.128906 19.042969 5.730469 C 18.335938 4.332031 18.902344 2.625 20.3125 1.921875 L 20.726562 1.714844 C 22.132812 1.011719 23.851562 1.574219 24.558594 2.976562 C 25.265625 4.375 24.699219 6.082031 23.289062 6.785156 Z M 23.289062 6.785156 " fill-opacity="1" fill-rule="nonzero"/><path fill="#000000" d="M 38.546875 6.785156 L 38.132812 6.992188 C 36.726562 7.695312 35.007812 7.128906 34.300781 5.730469 C 33.59375 4.332031 34.160156 2.625 35.570312 1.921875 L 35.984375 1.714844 C 37.390625 1.011719 39.109375 1.574219 39.816406 2.976562 C 40.523438 4.375 39.957031 6.082031 38.546875 6.785156 Z M 38.546875 6.785156 " fill-opacity="1" fill-rule="nonzero"/><path fill="#000000" d="M 53.804688 6.785156 L 53.390625 6.992188 C 51.984375 7.695312 50.265625 7.128906 49.558594 5.730469 C 48.851562 4.332031 49.417969 2.625 50.828125 1.921875 L 51.242188 1.714844 C 52.648438 1.011719 54.367188 1.574219 55.074219 2.976562 C 55.78125 4.375 55.214844 6.082031 53.804688 6.785156 Z M 53.804688 6.785156 " fill-opacity="1" fill-rule="nonzero"/><path fill="#000000" d="M 69.0625 6.785156 L 68.648438 6.992188 C 67.242188 7.695312 65.527344 7.128906 64.816406 5.730469 C 64.109375 4.332031 64.675781 2.625 66.085938 1.921875 L 66.5 1.714844 C 67.90625 1.011719 69.625 1.574219 70.332031 2.976562 C 71.039062 4.375 70.472656 6.082031 69.0625 6.785156 Z M 69.0625 6.785156 " fill-opacity="1" fill-rule="nonzero"/><path fill="#000000" d="M 84.320312 6.785156 L 83.90625 6.992188 C 82.5 7.695312 80.785156 7.128906 80.074219 5.730469 C 79.367188 4.332031 79.933594 2.625 81.34375 1.921875 L 81.757812 1.714844 C 83.164062 1.011719 84.882812 1.574219 85.589844 2.976562 C 86.296875 4.375 85.730469 6.082031 84.320312 6.785156 Z M 84.320312 6.785156 " fill-opacity="1" fill-rule="nonzero"/><path fill="#000000" d="M 99.578125 6.785156 L 99.164062 6.992188 C 97.757812 7.695312 96.042969 7.128906 95.332031 5.730469 C 94.625 4.332031 95.191406 2.625 96.601562 1.921875 L 97.015625 1.714844 C 98.421875 1.011719 100.140625 1.574219 100.847656 2.976562 C 101.554688 4.375 100.988281 6.082031 99.578125 6.785156 Z M 99.578125 6.785156 " fill-opacity="1" fill-rule="nonzero"/><path fill="#000000" d="M 114.835938 6.785156 L 114.421875 6.992188 C 113.015625 7.695312 111.300781 7.128906 110.589844 5.730469 C 109.882812 4.332031 110.449219 2.625 111.859375 1.921875 L 112.273438 1.714844 C 113.679688 1.011719 115.398438 1.574219 116.105469 2.976562 C 116.8125 4.375 116.246094 6.082031 114.835938 6.785156 Z M 114.835938 6.785156 " fill-opacity="1" fill-rule="nonzero"/><path fill="#000000" d="M 130.09375 6.785156 L 129.679688 6.992188 C 128.273438 7.695312 126.558594 7.128906 125.847656 5.730469 C 125.140625 4.332031 125.710938 2.625 127.117188 1.921875 L 127.53125 1.714844 C 128.9375 1.011719 130.65625 1.574219 131.363281 2.976562 C 132.070312 4.375 131.503906 6.082031 130.09375 6.785156 Z M 130.09375 6.785156 " fill-opacity="1" fill-rule="nonzero"/><path fill="#000000" d="M 145.753906 6.386719 L 145.339844 6.589844 C 143.933594 7.292969 142.21875 6.730469 141.507812 5.332031 C 140.800781 3.929688 141.367188 2.226562 142.777344 1.523438 L 143.191406 1.316406 C 144.597656 0.613281 146.316406 1.175781 147.023438 2.578125 C 147.730469 3.976562 147.164062 5.679688 145.753906 6.386719 Z M 145.753906 6.386719 " fill-opacity="1" fill-rule="nonzero"/></svg>