<?xml version="1.0" standalone="no"?>
<!DOCTYPE svg PUBLIC "-//W3C//DTD SVG 20010904//EN"
 "http://www.w3.org/TR/2001/REC-SVG-20010904/DTD/svg10.dtd">
<svg version="1.0" xmlns="http://www.w3.org/2000/svg"
 width="512.000000pt" height="512.000000pt" viewBox="0 0 512.000000 512.000000"
 preserveAspectRatio="xMidYMid meet">

<g transform="translate(0.000000,512.000000) scale(0.100000,-0.100000)"
fill="#000000" stroke="none">
<path d="M670 5105 c-163 -30 -298 -103 -425 -230 -155 -156 -226 -311 -241
-530 -15 -219 64 -437 221 -603 108 -115 242 -196 395 -238 91 -25 299 -25
395 0 84 22 196 72 260 116 l47 33 324 -324 323 -324 -35 -55 c-228 -359 -96
-845 285 -1044 118 -61 199 -81 341 -81 92 1 141 5 185 19 66 20 183 73 230
105 l31 20 392 -392 391 -392 -35 -55 c-156 -246 -148 -564 19 -810 95 -139
232 -237 407 -291 107 -34 292 -34 400 0 253 78 433 258 511 511 20 62 24 97
24 200 0 142 -20 223 -81 341 -199 381 -685 513 -1044 285 l-55 -35 -392 391
-392 392 20 31 c32 47 85 164 105 230 24 78 25 274 1 358 l-16 59 32 13 c18 8
198 95 402 194 l370 179 75 -71 c184 -176 431 -215 658 -105 93 45 216 168
261 262 110 230 67 482 -113 662 -180 180 -433 223 -662 112 -96 -46 -218
-167 -263 -262 -58 -122 -66 -189 -48 -395 2 -22 -29 -39 -398 -218 l-400
-194 -20 28 c-97 135 -258 242 -423 280 l-72 17 0 131 0 131 45 22 c69 34 129
94 161 165 40 86 41 195 2 279 -31 67 -95 133 -164 168 -42 21 -62 25 -144 25
-82 0 -102 -4 -144 -25 -69 -35 -133 -101 -164 -168 -39 -84 -38 -193 2 -279
32 -71 92 -131 161 -165 l45 -22 0 -131 0 -131 -72 -17 c-70 -16 -183 -65
-243 -106 l-31 -20 -323 323 -324 324 32 46 c113 164 163 398 127 595 -8 47
-24 96 -34 110 -26 35 -72 47 -112 31 -49 -20 -64 -50 -56 -118 25 -222 15
-303 -55 -443 -73 -145 -190 -247 -349 -303 -76 -27 -97 -30 -200 -30 -99 0
-126 4 -194 27 -100 35 -154 67 -226 134 -257 237 -263 644 -15 889 130 128
304 194 475 178 153 -13 169 -12 196 19 32 37 32 96 2 132 -44 50 -228 69
-388 40z m1965 -1105 c87 -54 83 -190 -7 -236 -62 -32 -149 -13 -184 41 -41
62 -22 155 39 194 42 27 110 27 152 1z m1997 -115 c234 -60 351 -316 246 -533
-28 -60 -110 -142 -170 -170 -149 -72 -317 -44 -433 73 -174 173 -141 457 66
585 92 57 190 72 291 45z m-1902 -814 c266 -90 420 -370 351 -641 -25 -101
-67 -173 -142 -249 -74 -74 -147 -116 -243 -141 -100 -25 -172 -25 -272 0 -96
25 -169 67 -243 141 -74 74 -116 147 -141 243 -43 168 -11 323 93 461 137 182
381 258 597 186z m1786 -1811 c172 -44 315 -177 375 -350 33 -92 33 -248 0
-340 -93 -267 -370 -420 -640 -352 -104 27 -174 67 -250 143 -75 75 -116 145
-141 245 -25 98 -25 170 0 270 25 96 67 169 141 243 73 73 147 116 239 140 97
26 178 26 276 1z"/>
<path d="M1294 4901 c-12 -5 -31 -22 -43 -37 -74 -94 65 -210 150 -125 21 22
29 39 29 65 0 66 -78 121 -136 97z"/>
<path d="M1756 1894 c-20 -21 -26 -37 -26 -69 0 -59 36 -95 95 -95 59 0 95 36
95 95 0 32 -6 48 -26 69 -21 20 -37 26 -69 26 -32 0 -48 -6 -69 -26z"/>
<path d="M1560 1683 c-16 -3 -133 -112 -336 -315 l-311 -309 -59 29 c-176 89
-359 93 -530 10 -95 -45 -217 -167 -262 -262 -81 -167 -81 -346 0 -512 46 -96
167 -218 262 -263 167 -79 349 -79 514 1 92 44 216 168 260 260 36 74 62 177
62 250 0 80 -27 195 -65 269 l-36 72 305 306 c168 168 310 319 316 335 27 72
-40 143 -120 129z m-850 -748 c108 -37 206 -148 236 -265 39 -153 -22 -311
-156 -402 -172 -118 -403 -72 -522 102 -118 172 -72 403 102 522 98 67 226 83
340 43z"/>
</g>
</svg>
