<svg xmlns="http://www.w3.org/2000/svg" viewBox="0 0 271.88 271.88"><defs><style>.cls-1{fill:#fff;stroke-width:6px;}.cls-1,.cls-2{stroke:#fff;stroke-miterlimit:10;}.cls-2{fill:none;stroke-width:10px;}</style></defs><title>Asset 516</title><g id="Layer_2" data-name="Layer 2"><g id="Layer_1-2" data-name="Layer 1"><path class="cls-1" d="M148.86,92.3v62.75a5,5,0,0,0,5,5h38.7a5,5,0,0,0,4.25-7.62L158.12,89.68A5,5,0,0,0,148.86,92.3Z"/><path class="cls-1" d="M132,65.24v89.81a5,5,0,0,1-5,5H71.51a5,5,0,0,1-4.25-7.63l55.49-89.81A5,5,0,0,1,132,65.24Z"/><path class="cls-1" d="M118.33,218.16V179.28a5,5,0,0,1,5-5h28.2a5,5,0,0,1,4.05,7.94l-28.2,38.88A5,5,0,0,1,118.33,218.16Z"/><circle class="cls-2" cx="135.94" cy="135.94" r="130.94"/></g></g></svg>