<svg xmlns="http://www.w3.org/2000/svg" xmlns:xlink="http://www.w3.org/1999/xlink" width="423" zoomAndPan="magnify" viewBox="0 0 317.25 91.5" height="122" preserveAspectRatio="xMidYMid meet" version="1.0"><defs><g/><clipPath id="1dd9aa8c79"><path d="M 6 18 L 82 18 L 82 73 L 6 73 Z M 6 18 " clip-rule="nonzero"/></clipPath><clipPath id="fa27074543"><path d="M 67.824219 3.425781 L 87.160156 66.933594 L 20.085938 87.359375 L 0.746094 23.851562 Z M 67.824219 3.425781 " clip-rule="nonzero"/></clipPath><clipPath id="52b1d40f66"><path d="M 67.824219 3.425781 L 87.160156 66.933594 L 20.085938 87.359375 L 0.746094 23.851562 Z M 67.824219 3.425781 " clip-rule="nonzero"/></clipPath><clipPath id="98c0cd7809"><path d="M 67.824219 3.425781 L 87.160156 66.933594 L 20.085938 87.359375 L 0.746094 23.851562 Z M 67.824219 3.425781 " clip-rule="nonzero"/></clipPath><clipPath id="9478f05512"><path d="M 47.679688 49.421875 L 39.050781 21.078125 C 38.714844 19.976562 39.53125 18.859375 40.683594 18.832031 L 70.964844 18.117188 C 71.746094 18.097656 72.445312 18.601562 72.671875 19.34375 L 81.300781 47.6875 C 81.636719 48.789062 80.820312 49.90625 79.667969 49.933594 L 49.386719 50.648438 C 48.605469 50.667969 47.90625 50.167969 47.679688 49.421875 Z M 21.007812 37.425781 L 36.597656 37.058594 C 37.753906 37.03125 38.566406 35.914062 38.234375 34.816406 L 33.796875 20.242188 C 33.570312 19.5 32.875 19 32.089844 19.015625 L 16.5 19.386719 C 15.34375 19.414062 14.53125 20.53125 14.867188 21.628906 L 19.300781 36.199219 C 19.527344 36.945312 20.226562 37.445312 21.007812 37.425781 Z M 38.527344 40.148438 L 8.246094 40.867188 C 7.089844 40.894531 6.277344 42.011719 6.613281 43.109375 L 15.242188 71.457031 C 15.46875 72.199219 16.167969 72.699219 16.949219 72.683594 L 47.226562 71.964844 C 48.382812 71.9375 49.199219 70.820312 48.863281 69.722656 L 40.230469 41.375 C 40.003906 40.632812 39.308594 40.132812 38.527344 40.148438 Z M 66.90625 53.371094 L 51.316406 53.742188 C 50.160156 53.769531 49.34375 54.886719 49.679688 55.984375 L 54.117188 70.554688 C 54.34375 71.300781 55.039062 71.800781 55.820312 71.78125 L 71.414062 71.414062 C 72.566406 71.386719 73.382812 70.269531 73.046875 69.171875 L 68.609375 54.597656 C 68.382812 53.855469 67.6875 53.355469 66.90625 53.371094 Z M 66.90625 53.371094 " clip-rule="nonzero"/></clipPath><linearGradient x1="87.869528" gradientTransform="matrix(0.0405898, 0.133302, -0.134152, 0.0408488, 67.896928, 3.667249)" y1="-112.019807" x2="385.048768" gradientUnits="userSpaceOnUse" y2="612.019866" id="16c0e1da0d"><stop stop-opacity="1" stop-color="rgb(0%, 98.799133%, 65.899658%)" offset="0"/><stop stop-opacity="1" stop-color="rgb(0%, 98.799133%, 65.899658%)" offset="0.125"/><stop stop-opacity="1" stop-color="rgb(0%, 98.799133%, 65.899658%)" offset="0.15625"/><stop stop-opacity="1" stop-color="rgb(0.00305176%, 98.794556%, 65.911865%)" offset="0.164062"/><stop stop-opacity="1" stop-color="rgb(0.0778198%, 98.704529%, 66.142273%)" offset="0.167969"/><stop stop-opacity="1" stop-color="rgb(0.14801%, 98.61908%, 66.360474%)" offset="0.171875"/><stop stop-opacity="1" stop-color="rgb(0.218201%, 98.53363%, 66.578674%)" offset="0.175781"/><stop stop-opacity="1" stop-color="rgb(0.289917%, 98.448181%, 66.798401%)" offset="0.179688"/><stop stop-opacity="1" stop-color="rgb(0.360107%, 98.362732%, 67.016602%)" offset="0.183594"/><stop stop-opacity="1" stop-color="rgb(0.430298%, 98.278809%, 67.234802%)" offset="0.1875"/><stop stop-opacity="1" stop-color="rgb(0.500488%, 98.193359%, 67.453003%)" offset="0.191406"/><stop stop-opacity="1" stop-color="rgb(0.570679%, 98.10791%, 67.672729%)" offset="0.195312"/><stop stop-opacity="1" stop-color="rgb(0.640869%, 98.022461%, 67.89093%)" offset="0.199219"/><stop stop-opacity="1" stop-color="rgb(0.712585%, 97.937012%, 68.109131%)" offset="0.203125"/><stop stop-opacity="1" stop-color="rgb(0.782776%, 97.851562%, 68.327332%)" offset="0.207031"/><stop stop-opacity="1" stop-color="rgb(0.852966%, 97.766113%, 68.547058%)" offset="0.210938"/><stop stop-opacity="1" stop-color="rgb(0.923157%, 97.680664%, 68.765259%)" offset="0.214844"/><stop stop-opacity="1" stop-color="rgb(0.994873%, 97.596741%, 68.983459%)" offset="0.21875"/><stop stop-opacity="1" stop-color="rgb(1.065063%, 97.511292%, 69.20166%)" offset="0.222656"/><stop stop-opacity="1" stop-color="rgb(1.135254%, 97.425842%, 69.421387%)" offset="0.226562"/><stop stop-opacity="1" stop-color="rgb(1.205444%, 97.340393%, 69.639587%)" offset="0.230469"/><stop stop-opacity="1" stop-color="rgb(1.277161%, 97.254944%, 69.857788%)" offset="0.234375"/><stop stop-opacity="1" stop-color="rgb(1.347351%, 97.169495%, 70.075989%)" offset="0.238281"/><stop stop-opacity="1" stop-color="rgb(1.417542%, 97.084045%, 70.295715%)" offset="0.242188"/><stop stop-opacity="1" stop-color="rgb(1.487732%, 96.998596%, 70.513916%)" offset="0.246094"/><stop stop-opacity="1" stop-color="rgb(1.557922%, 96.914673%, 70.732117%)" offset="0.25"/><stop stop-opacity="1" stop-color="rgb(1.628113%, 96.829224%, 70.950317%)" offset="0.253906"/><stop stop-opacity="1" stop-color="rgb(1.699829%, 96.743774%, 71.170044%)" offset="0.257812"/><stop stop-opacity="1" stop-color="rgb(1.77002%, 96.658325%, 71.388245%)" offset="0.261719"/><stop stop-opacity="1" stop-color="rgb(1.84021%, 96.572876%, 71.606445%)" offset="0.265625"/><stop stop-opacity="1" stop-color="rgb(1.9104%, 96.487427%, 71.824646%)" offset="0.269531"/><stop stop-opacity="1" stop-color="rgb(1.982117%, 96.401978%, 72.044373%)" offset="0.273438"/><stop stop-opacity="1" stop-color="rgb(2.052307%, 96.316528%, 72.262573%)" offset="0.277344"/><stop stop-opacity="1" stop-color="rgb(2.122498%, 96.232605%, 72.4823%)" offset="0.28125"/><stop stop-opacity="1" stop-color="rgb(2.192688%, 96.147156%, 72.7005%)" offset="0.285156"/><stop stop-opacity="1" stop-color="rgb(2.262878%, 96.061707%, 72.918701%)" offset="0.289062"/><stop stop-opacity="1" stop-color="rgb(2.333069%, 95.976257%, 73.136902%)" offset="0.292969"/><stop stop-opacity="1" stop-color="rgb(2.404785%, 95.890808%, 73.356628%)" offset="0.296875"/><stop stop-opacity="1" stop-color="rgb(2.474976%, 95.805359%, 73.574829%)" offset="0.300781"/><stop stop-opacity="1" stop-color="rgb(2.545166%, 95.71991%, 73.79303%)" offset="0.304688"/><stop stop-opacity="1" stop-color="rgb(2.615356%, 95.63446%, 74.01123%)" offset="0.308594"/><stop stop-opacity="1" stop-color="rgb(2.687073%, 95.550537%, 74.230957%)" offset="0.3125"/><stop stop-opacity="1" stop-color="rgb(2.757263%, 95.465088%, 74.449158%)" offset="0.316406"/><stop stop-opacity="1" stop-color="rgb(2.827454%, 95.379639%, 74.667358%)" offset="0.320312"/><stop stop-opacity="1" stop-color="rgb(2.897644%, 95.294189%, 74.885559%)" offset="0.324219"/><stop stop-opacity="1" stop-color="rgb(2.96936%, 95.20874%, 75.105286%)" offset="0.328125"/><stop stop-opacity="1" stop-color="rgb(3.039551%, 95.123291%, 75.323486%)" offset="0.332031"/><stop stop-opacity="1" stop-color="rgb(3.109741%, 95.037842%, 75.541687%)" offset="0.335937"/><stop stop-opacity="1" stop-color="rgb(3.179932%, 94.952393%, 75.759888%)" offset="0.339844"/><stop stop-opacity="1" stop-color="rgb(3.250122%, 94.868469%, 75.979614%)" offset="0.34375"/><stop stop-opacity="1" stop-color="rgb(3.320312%, 94.78302%, 76.197815%)" offset="0.347656"/><stop stop-opacity="1" stop-color="rgb(3.392029%, 94.697571%, 76.416016%)" offset="0.351562"/><stop stop-opacity="1" stop-color="rgb(3.462219%, 94.612122%, 76.634216%)" offset="0.355469"/><stop stop-opacity="1" stop-color="rgb(3.53241%, 94.526672%, 76.853943%)" offset="0.359375"/><stop stop-opacity="1" stop-color="rgb(3.6026%, 94.441223%, 77.072144%)" offset="0.363281"/><stop stop-opacity="1" stop-color="rgb(3.674316%, 94.355774%, 77.290344%)" offset="0.367187"/><stop stop-opacity="1" stop-color="rgb(3.744507%, 94.270325%, 77.508545%)" offset="0.371094"/><stop stop-opacity="1" stop-color="rgb(3.814697%, 94.186401%, 77.728271%)" offset="0.375"/><stop stop-opacity="1" stop-color="rgb(3.884888%, 94.100952%, 77.946472%)" offset="0.378906"/><stop stop-opacity="1" stop-color="rgb(3.956604%, 94.015503%, 78.164673%)" offset="0.382812"/><stop stop-opacity="1" stop-color="rgb(4.026794%, 93.930054%, 78.382874%)" offset="0.386719"/><stop stop-opacity="1" stop-color="rgb(4.096985%, 93.844604%, 78.6026%)" offset="0.390625"/><stop stop-opacity="1" stop-color="rgb(4.167175%, 93.759155%, 78.820801%)" offset="0.394531"/><stop stop-opacity="1" stop-color="rgb(4.237366%, 93.673706%, 79.039001%)" offset="0.398437"/><stop stop-opacity="1" stop-color="rgb(4.307556%, 93.588257%, 79.257202%)" offset="0.402344"/><stop stop-opacity="1" stop-color="rgb(4.379272%, 93.504333%, 79.476929%)" offset="0.40625"/><stop stop-opacity="1" stop-color="rgb(4.449463%, 93.418884%, 79.695129%)" offset="0.410156"/><stop stop-opacity="1" stop-color="rgb(4.519653%, 93.333435%, 79.91333%)" offset="0.414062"/><stop stop-opacity="1" stop-color="rgb(4.589844%, 93.247986%, 80.131531%)" offset="0.417969"/><stop stop-opacity="1" stop-color="rgb(4.66156%, 93.162537%, 80.351257%)" offset="0.421875"/><stop stop-opacity="1" stop-color="rgb(4.73175%, 93.077087%, 80.569458%)" offset="0.425781"/><stop stop-opacity="1" stop-color="rgb(4.801941%, 92.991638%, 80.787659%)" offset="0.429687"/><stop stop-opacity="1" stop-color="rgb(4.872131%, 92.906189%, 81.005859%)" offset="0.433594"/><stop stop-opacity="1" stop-color="rgb(4.943848%, 92.822266%, 81.225586%)" offset="0.4375"/><stop stop-opacity="1" stop-color="rgb(5.014038%, 92.736816%, 81.443787%)" offset="0.441406"/><stop stop-opacity="1" stop-color="rgb(5.084229%, 92.651367%, 81.661987%)" offset="0.445312"/><stop stop-opacity="1" stop-color="rgb(5.154419%, 92.565918%, 81.880188%)" offset="0.449219"/><stop stop-opacity="1" stop-color="rgb(5.224609%, 92.480469%, 82.099915%)" offset="0.453125"/><stop stop-opacity="1" stop-color="rgb(5.2948%, 92.39502%, 82.318115%)" offset="0.457031"/><stop stop-opacity="1" stop-color="rgb(5.366516%, 92.30957%, 82.536316%)" offset="0.460937"/><stop stop-opacity="1" stop-color="rgb(5.436707%, 92.224121%, 82.754517%)" offset="0.464844"/><stop stop-opacity="1" stop-color="rgb(5.506897%, 92.140198%, 82.974243%)" offset="0.46875"/><stop stop-opacity="1" stop-color="rgb(5.577087%, 92.054749%, 83.192444%)" offset="0.472656"/><stop stop-opacity="1" stop-color="rgb(5.648804%, 91.969299%, 83.410645%)" offset="0.476563"/><stop stop-opacity="1" stop-color="rgb(5.718994%, 91.88385%, 83.628845%)" offset="0.480469"/><stop stop-opacity="1" stop-color="rgb(5.789185%, 91.798401%, 83.848572%)" offset="0.484375"/><stop stop-opacity="1" stop-color="rgb(5.859375%, 91.712952%, 84.066772%)" offset="0.488281"/><stop stop-opacity="1" stop-color="rgb(5.929565%, 91.627502%, 84.284973%)" offset="0.492187"/><stop stop-opacity="1" stop-color="rgb(5.999756%, 91.542053%, 84.503174%)" offset="0.496094"/><stop stop-opacity="1" stop-color="rgb(6.071472%, 91.45813%, 84.7229%)" offset="0.5"/><stop stop-opacity="1" stop-color="rgb(6.141663%, 91.372681%, 84.941101%)" offset="0.503906"/><stop stop-opacity="1" stop-color="rgb(6.211853%, 91.287231%, 85.159302%)" offset="0.507812"/><stop stop-opacity="1" stop-color="rgb(6.282043%, 91.201782%, 85.377502%)" offset="0.511719"/><stop stop-opacity="1" stop-color="rgb(6.35376%, 91.116333%, 85.597229%)" offset="0.515625"/><stop stop-opacity="1" stop-color="rgb(6.42395%, 91.030884%, 85.81543%)" offset="0.519531"/><stop stop-opacity="1" stop-color="rgb(6.494141%, 90.945435%, 86.03363%)" offset="0.523438"/><stop stop-opacity="1" stop-color="rgb(6.564331%, 90.859985%, 86.251831%)" offset="0.527344"/><stop stop-opacity="1" stop-color="rgb(6.636047%, 90.776062%, 86.471558%)" offset="0.53125"/><stop stop-opacity="1" stop-color="rgb(6.706238%, 90.690613%, 86.689758%)" offset="0.535156"/><stop stop-opacity="1" stop-color="rgb(6.776428%, 90.605164%, 86.907959%)" offset="0.539062"/><stop stop-opacity="1" stop-color="rgb(6.846619%, 90.519714%, 87.12616%)" offset="0.542969"/><stop stop-opacity="1" stop-color="rgb(6.916809%, 90.434265%, 87.345886%)" offset="0.546875"/><stop stop-opacity="1" stop-color="rgb(6.987%, 90.348816%, 87.564087%)" offset="0.550781"/><stop stop-opacity="1" stop-color="rgb(7.058716%, 90.263367%, 87.782288%)" offset="0.554688"/><stop stop-opacity="1" stop-color="rgb(7.128906%, 90.177917%, 88.000488%)" offset="0.558594"/><stop stop-opacity="1" stop-color="rgb(7.199097%, 90.093994%, 88.220215%)" offset="0.5625"/><stop stop-opacity="1" stop-color="rgb(7.269287%, 90.008545%, 88.438416%)" offset="0.566406"/><stop stop-opacity="1" stop-color="rgb(7.341003%, 89.923096%, 88.656616%)" offset="0.570312"/><stop stop-opacity="1" stop-color="rgb(7.411194%, 89.837646%, 88.874817%)" offset="0.574219"/><stop stop-opacity="1" stop-color="rgb(7.481384%, 89.752197%, 89.094543%)" offset="0.578125"/><stop stop-opacity="1" stop-color="rgb(7.551575%, 89.666748%, 89.312744%)" offset="0.582031"/><stop stop-opacity="1" stop-color="rgb(7.623291%, 89.581299%, 89.530945%)" offset="0.585938"/><stop stop-opacity="1" stop-color="rgb(7.693481%, 89.49585%, 89.749146%)" offset="0.589844"/><stop stop-opacity="1" stop-color="rgb(7.763672%, 89.411926%, 89.968872%)" offset="0.59375"/><stop stop-opacity="1" stop-color="rgb(7.833862%, 89.326477%, 90.187073%)" offset="0.597656"/><stop stop-opacity="1" stop-color="rgb(7.904053%, 89.241028%, 90.406799%)" offset="0.601562"/><stop stop-opacity="1" stop-color="rgb(7.974243%, 89.155579%, 90.625%)" offset="0.605469"/><stop stop-opacity="1" stop-color="rgb(8.045959%, 89.070129%, 90.843201%)" offset="0.609375"/><stop stop-opacity="1" stop-color="rgb(8.11615%, 88.98468%, 91.061401%)" offset="0.613281"/><stop stop-opacity="1" stop-color="rgb(8.18634%, 88.899231%, 91.281128%)" offset="0.617188"/><stop stop-opacity="1" stop-color="rgb(8.256531%, 88.813782%, 91.499329%)" offset="0.621094"/><stop stop-opacity="1" stop-color="rgb(8.328247%, 88.729858%, 91.717529%)" offset="0.625"/><stop stop-opacity="1" stop-color="rgb(8.398438%, 88.644409%, 91.93573%)" offset="0.628906"/><stop stop-opacity="1" stop-color="rgb(8.468628%, 88.55896%, 92.155457%)" offset="0.632812"/><stop stop-opacity="1" stop-color="rgb(8.538818%, 88.473511%, 92.373657%)" offset="0.636719"/><stop stop-opacity="1" stop-color="rgb(8.610535%, 88.388062%, 92.591858%)" offset="0.640625"/><stop stop-opacity="1" stop-color="rgb(8.680725%, 88.302612%, 92.810059%)" offset="0.644531"/><stop stop-opacity="1" stop-color="rgb(8.750916%, 88.217163%, 93.029785%)" offset="0.648438"/><stop stop-opacity="1" stop-color="rgb(8.821106%, 88.131714%, 93.247986%)" offset="0.652344"/><stop stop-opacity="1" stop-color="rgb(8.891296%, 88.047791%, 93.466187%)" offset="0.65625"/><stop stop-opacity="1" stop-color="rgb(8.961487%, 87.962341%, 93.684387%)" offset="0.660156"/><stop stop-opacity="1" stop-color="rgb(9.033203%, 87.876892%, 93.904114%)" offset="0.664062"/><stop stop-opacity="1" stop-color="rgb(9.103394%, 87.791443%, 94.122314%)" offset="0.667969"/><stop stop-opacity="1" stop-color="rgb(9.173584%, 87.705994%, 94.340515%)" offset="0.671875"/><stop stop-opacity="1" stop-color="rgb(9.243774%, 87.620544%, 94.558716%)" offset="0.675781"/><stop stop-opacity="1" stop-color="rgb(9.315491%, 87.535095%, 94.778442%)" offset="0.679688"/><stop stop-opacity="1" stop-color="rgb(9.385681%, 87.449646%, 94.996643%)" offset="0.683594"/><stop stop-opacity="1" stop-color="rgb(9.455872%, 87.365723%, 95.214844%)" offset="0.6875"/><stop stop-opacity="1" stop-color="rgb(9.526062%, 87.280273%, 95.433044%)" offset="0.691406"/><stop stop-opacity="1" stop-color="rgb(9.596252%, 87.194824%, 95.652771%)" offset="0.695312"/><stop stop-opacity="1" stop-color="rgb(9.666443%, 87.109375%, 95.870972%)" offset="0.699219"/><stop stop-opacity="1" stop-color="rgb(9.738159%, 87.023926%, 96.089172%)" offset="0.703125"/><stop stop-opacity="1" stop-color="rgb(9.80835%, 86.938477%, 96.307373%)" offset="0.707031"/><stop stop-opacity="1" stop-color="rgb(9.87854%, 86.853027%, 96.5271%)" offset="0.710938"/><stop stop-opacity="1" stop-color="rgb(9.94873%, 86.767578%, 96.7453%)" offset="0.714844"/><stop stop-opacity="1" stop-color="rgb(10.020447%, 86.683655%, 96.963501%)" offset="0.71875"/><stop stop-opacity="1" stop-color="rgb(10.090637%, 86.598206%, 97.181702%)" offset="0.722656"/><stop stop-opacity="1" stop-color="rgb(10.160828%, 86.512756%, 97.401428%)" offset="0.726562"/><stop stop-opacity="1" stop-color="rgb(10.231018%, 86.427307%, 97.619629%)" offset="0.730469"/><stop stop-opacity="1" stop-color="rgb(10.302734%, 86.341858%, 97.83783%)" offset="0.734375"/><stop stop-opacity="1" stop-color="rgb(10.372925%, 86.256409%, 98.05603%)" offset="0.738281"/><stop stop-opacity="1" stop-color="rgb(10.443115%, 86.170959%, 98.275757%)" offset="0.742188"/><stop stop-opacity="1" stop-color="rgb(10.513306%, 86.08551%, 98.493958%)" offset="0.746094"/><stop stop-opacity="1" stop-color="rgb(10.583496%, 86.001587%, 98.712158%)" offset="0.75"/><stop stop-opacity="1" stop-color="rgb(10.653687%, 85.916138%, 98.930359%)" offset="0.753906"/><stop stop-opacity="1" stop-color="rgb(10.725403%, 85.830688%, 99.150085%)" offset="0.757812"/><stop stop-opacity="1" stop-color="rgb(10.795593%, 85.745239%, 99.368286%)" offset="0.761719"/><stop stop-opacity="1" stop-color="rgb(10.865784%, 85.65979%, 99.586487%)" offset="0.765625"/><stop stop-opacity="1" stop-color="rgb(10.931396%, 85.578918%, 99.79248%)" offset="0.769531"/><stop stop-opacity="1" stop-color="rgb(10.998535%, 85.499573%, 100%)" offset="0.773438"/><stop stop-opacity="1" stop-color="rgb(10.998535%, 85.499573%, 100%)" offset="0.78125"/><stop stop-opacity="1" stop-color="rgb(10.998535%, 85.499573%, 100%)" offset="0.8125"/><stop stop-opacity="1" stop-color="rgb(10.998535%, 85.499573%, 100%)" offset="0.875"/><stop stop-opacity="1" stop-color="rgb(10.998535%, 85.499573%, 100%)" offset="1"/></linearGradient><clipPath id="0e244b5933"><path d="M 226.996094 55.980469 L 237.855469 55.980469 L 237.855469 66.84375 L 226.996094 66.84375 Z M 226.996094 55.980469 " clip-rule="nonzero"/></clipPath><clipPath id="e0889b196f"><path d="M 232.425781 55.980469 C 229.425781 55.980469 226.996094 58.414062 226.996094 61.414062 C 226.996094 64.410156 229.425781 66.84375 232.425781 66.84375 C 235.425781 66.84375 237.855469 64.410156 237.855469 61.414062 C 237.855469 58.414062 235.425781 55.980469 232.425781 55.980469 Z M 232.425781 55.980469 " clip-rule="nonzero"/></clipPath><radialGradient gradientTransform="matrix(1, 0, 0, 1, 226.995013, 55.982387)" gradientUnits="userSpaceOnUse" r="15.359809" cx="0" id="4b4d834887" cy="0" fx="0" fy="0"><stop stop-opacity="1" stop-color="rgb(0.0183105%, 98.664856%, 66.067505%)" offset="0"/><stop stop-opacity="1" stop-color="rgb(0.050354%, 98.429871%, 66.363525%)" offset="0.015625"/><stop stop-opacity="1" stop-color="rgb(0.0793457%, 98.228455%, 66.616821%)" offset="0.0273438"/><stop stop-opacity="1" stop-color="rgb(0.106812%, 98.027039%, 66.870117%)" offset="0.0390625"/><stop stop-opacity="1" stop-color="rgb(0.134277%, 97.825623%, 67.121887%)" offset="0.0507812"/><stop stop-opacity="1" stop-color="rgb(0.163269%, 97.622681%, 67.375183%)" offset="0.0625"/><stop stop-opacity="1" stop-color="rgb(0.190735%, 97.421265%, 67.628479%)" offset="0.0742188"/><stop stop-opacity="1" stop-color="rgb(0.219727%, 97.219849%, 67.881775%)" offset="0.0859375"/><stop stop-opacity="1" stop-color="rgb(0.247192%, 97.018433%, 68.135071%)" offset="0.0976562"/><stop stop-opacity="1" stop-color="rgb(0.276184%, 96.817017%, 68.388367%)" offset="0.109375"/><stop stop-opacity="1" stop-color="rgb(0.30365%, 96.615601%, 68.641663%)" offset="0.121094"/><stop stop-opacity="1" stop-color="rgb(0.331116%, 96.414185%, 68.894958%)" offset="0.132812"/><stop stop-opacity="1" stop-color="rgb(0.360107%, 96.212769%, 69.148254%)" offset="0.144531"/><stop stop-opacity="1" stop-color="rgb(0.387573%, 96.011353%, 69.400024%)" offset="0.15625"/><stop stop-opacity="1" stop-color="rgb(0.416565%, 95.809937%, 69.65332%)" offset="0.167969"/><stop stop-opacity="1" stop-color="rgb(0.444031%, 95.608521%, 69.906616%)" offset="0.179688"/><stop stop-opacity="1" stop-color="rgb(0.473022%, 95.405579%, 70.159912%)" offset="0.191406"/><stop stop-opacity="1" stop-color="rgb(0.500488%, 95.204163%, 70.413208%)" offset="0.203125"/><stop stop-opacity="1" stop-color="rgb(0.527954%, 95.002747%, 70.666504%)" offset="0.214844"/><stop stop-opacity="1" stop-color="rgb(0.556946%, 94.801331%, 70.9198%)" offset="0.226562"/><stop stop-opacity="1" stop-color="rgb(0.584412%, 94.599915%, 71.173096%)" offset="0.238281"/><stop stop-opacity="1" stop-color="rgb(0.613403%, 94.398499%, 71.426392%)" offset="0.25"/><stop stop-opacity="1" stop-color="rgb(0.636292%, 94.230652%, 71.636963%)" offset="0.261719"/><stop stop-opacity="1" stop-color="rgb(0.654602%, 94.096375%, 71.80481%)" offset="0.269531"/><stop stop-opacity="1" stop-color="rgb(0.674438%, 93.962097%, 71.974182%)" offset="0.277344"/><stop stop-opacity="1" stop-color="rgb(0.692749%, 93.82782%, 72.142029%)" offset="0.285156"/><stop stop-opacity="1" stop-color="rgb(0.71106%, 93.693542%, 72.311401%)" offset="0.292969"/><stop stop-opacity="1" stop-color="rgb(0.730896%, 93.559265%, 72.480774%)" offset="0.300781"/><stop stop-opacity="1" stop-color="rgb(0.749207%, 93.423462%, 72.648621%)" offset="0.308594"/><stop stop-opacity="1" stop-color="rgb(0.767517%, 93.289185%, 72.817993%)" offset="0.316406"/><stop stop-opacity="1" stop-color="rgb(0.785828%, 93.154907%, 72.98584%)" offset="0.324219"/><stop stop-opacity="1" stop-color="rgb(0.805664%, 93.02063%, 73.155212%)" offset="0.332031"/><stop stop-opacity="1" stop-color="rgb(0.823975%, 92.886353%, 73.323059%)" offset="0.339844"/><stop stop-opacity="1" stop-color="rgb(0.842285%, 92.752075%, 73.492432%)" offset="0.347656"/><stop stop-opacity="1" stop-color="rgb(0.862122%, 92.617798%, 73.661804%)" offset="0.355469"/><stop stop-opacity="1" stop-color="rgb(0.880432%, 92.483521%, 73.829651%)" offset="0.363281"/><stop stop-opacity="1" stop-color="rgb(0.898743%, 92.349243%, 73.999023%)" offset="0.371094"/><stop stop-opacity="1" stop-color="rgb(0.926208%, 92.147827%, 74.252319%)" offset="0.378906"/><stop stop-opacity="1" stop-color="rgb(0.964355%, 91.879272%, 74.589539%)" offset="0.394531"/><stop stop-opacity="1" stop-color="rgb(1.002502%, 91.610718%, 74.926758%)" offset="0.410156"/><stop stop-opacity="1" stop-color="rgb(1.039124%, 91.340637%, 75.263977%)" offset="0.425781"/><stop stop-opacity="1" stop-color="rgb(1.077271%, 91.072083%, 75.601196%)" offset="0.441406"/><stop stop-opacity="1" stop-color="rgb(1.113892%, 90.803528%, 75.939941%)" offset="0.457031"/><stop stop-opacity="1" stop-color="rgb(1.152039%, 90.534973%, 76.277161%)" offset="0.472656"/><stop stop-opacity="1" stop-color="rgb(1.190186%, 90.266418%, 76.61438%)" offset="0.488281"/><stop stop-opacity="1" stop-color="rgb(1.222229%, 90.031433%, 76.9104%)" offset="0.503906"/><stop stop-opacity="1" stop-color="rgb(1.251221%, 89.830017%, 77.163696%)" offset="0.515625"/><stop stop-opacity="1" stop-color="rgb(1.278687%, 89.628601%, 77.416992%)" offset="0.527344"/><stop stop-opacity="1" stop-color="rgb(1.306152%, 89.427185%, 77.668762%)" offset="0.539062"/><stop stop-opacity="1" stop-color="rgb(1.335144%, 89.224243%, 77.922058%)" offset="0.550781"/><stop stop-opacity="1" stop-color="rgb(1.36261%, 89.022827%, 78.175354%)" offset="0.5625"/><stop stop-opacity="1" stop-color="rgb(1.391602%, 88.821411%, 78.42865%)" offset="0.574219"/><stop stop-opacity="1" stop-color="rgb(1.419067%, 88.619995%, 78.681946%)" offset="0.585938"/><stop stop-opacity="1" stop-color="rgb(1.448059%, 88.418579%, 78.935242%)" offset="0.597656"/><stop stop-opacity="1" stop-color="rgb(1.475525%, 88.217163%, 79.188538%)" offset="0.609375"/><stop stop-opacity="1" stop-color="rgb(1.502991%, 88.015747%, 79.441833%)" offset="0.621094"/><stop stop-opacity="1" stop-color="rgb(1.527405%, 87.8479%, 79.652405%)" offset="0.632812"/><stop stop-opacity="1" stop-color="rgb(1.545715%, 87.713623%, 79.820251%)" offset="0.640625"/><stop stop-opacity="1" stop-color="rgb(1.564026%, 87.579346%, 79.989624%)" offset="0.648438"/><stop stop-opacity="1" stop-color="rgb(1.583862%, 87.445068%, 80.157471%)" offset="0.65625"/><stop stop-opacity="1" stop-color="rgb(1.602173%, 87.310791%, 80.326843%)" offset="0.664062"/><stop stop-opacity="1" stop-color="rgb(1.620483%, 87.176514%, 80.496216%)" offset="0.671875"/><stop stop-opacity="1" stop-color="rgb(1.64032%, 87.04071%, 80.664062%)" offset="0.679688"/><stop stop-opacity="1" stop-color="rgb(1.65863%, 86.906433%, 80.833435%)" offset="0.6875"/><stop stop-opacity="1" stop-color="rgb(1.686096%, 86.705017%, 81.086731%)" offset="0.695312"/><stop stop-opacity="1" stop-color="rgb(1.724243%, 86.436462%, 81.42395%)" offset="0.710938"/><stop stop-opacity="1" stop-color="rgb(1.760864%, 86.167908%, 81.761169%)" offset="0.726562"/><stop stop-opacity="1" stop-color="rgb(1.799011%, 85.899353%, 82.098389%)" offset="0.742188"/><stop stop-opacity="1" stop-color="rgb(1.831055%, 85.664368%, 82.394409%)" offset="0.757812"/><stop stop-opacity="1" stop-color="rgb(1.860046%, 85.462952%, 82.647705%)" offset="0.769531"/><stop stop-opacity="1" stop-color="rgb(1.887512%, 85.261536%, 82.901001%)" offset="0.78125"/><stop stop-opacity="1" stop-color="rgb(1.916504%, 85.058594%, 83.154297%)" offset="0.792969"/><stop stop-opacity="1" stop-color="rgb(1.94397%, 84.857178%, 83.407593%)" offset="0.804688"/><stop stop-opacity="1" stop-color="rgb(1.968384%, 84.689331%, 83.618164%)" offset="0.816406"/><stop stop-opacity="1" stop-color="rgb(1.986694%, 84.555054%, 83.786011%)" offset="0.824219"/><stop stop-opacity="1" stop-color="rgb(2.005005%, 84.420776%, 83.955383%)" offset="0.832031"/><stop stop-opacity="1" stop-color="rgb(2.023315%, 84.286499%, 84.12323%)" offset="0.839844"/><stop stop-opacity="1" stop-color="rgb(2.052307%, 84.085083%, 84.376526%)" offset="0.847656"/><stop stop-opacity="1" stop-color="rgb(2.088928%, 83.816528%, 84.713745%)" offset="0.863281"/><stop stop-opacity="1" stop-color="rgb(2.122498%, 83.581543%, 85.009766%)" offset="0.878906"/><stop stop-opacity="1" stop-color="rgb(2.149963%, 83.380127%, 85.263062%)" offset="0.890625"/><stop stop-opacity="1" stop-color="rgb(2.178955%, 83.178711%, 85.516357%)" offset="0.902344"/><stop stop-opacity="1" stop-color="rgb(2.201843%, 83.010864%, 85.726929%)" offset="0.914062"/><stop stop-opacity="1" stop-color="rgb(2.220154%, 82.875061%, 85.896301%)" offset="0.921875"/><stop stop-opacity="1" stop-color="rgb(2.249146%, 82.673645%, 86.148071%)" offset="0.929688"/><stop stop-opacity="1" stop-color="rgb(2.281189%, 82.43866%, 86.444092%)" offset="0.945312"/><stop stop-opacity="1" stop-color="rgb(2.305603%, 82.270813%, 86.654663%)" offset="0.957031"/><stop stop-opacity="1" stop-color="rgb(2.333069%, 82.069397%, 86.907959%)" offset="0.964844"/><stop stop-opacity="1" stop-color="rgb(2.362061%, 81.867981%, 87.161255%)" offset="0.980469"/><stop stop-opacity="1" stop-color="rgb(2.384949%, 81.700134%, 87.373352%)" offset="0.988281"/><stop stop-opacity="1" stop-color="rgb(2.398682%, 81.599426%, 87.5%)" offset="1"/></radialGradient></defs><g fill="#ffffff" fill-opacity="1"><g transform="translate(85.752775, 57.809104)"><g><path d="M 15.921875 12.046875 C 13.972656 12.046875 12.007812 11.796875 10.03125 11.296875 C 8.0625 10.796875 6.441406 10.175781 5.171875 9.4375 C 4.566406 9.070312 4.265625 8.488281 4.265625 7.6875 C 4.265625 7.144531 4.457031 6.664062 4.84375 6.25 C 5.226562 5.832031 5.707031 5.625 6.28125 5.625 C 6.539062 5.625 6.835938 5.691406 7.171875 5.828125 C 9.722656 7.097656 12.488281 7.734375 15.46875 7.734375 C 20.582031 7.734375 23.140625 5.003906 23.140625 -0.453125 L 23.140625 -3.8125 C 20.765625 -1.269531 17.90625 0 14.5625 0 C 12.582031 0 10.664062 -0.492188 8.8125 -1.484375 C 6.957031 -2.472656 5.425781 -3.941406 4.21875 -5.890625 C 3.007812 -7.847656 2.40625 -10.234375 2.40625 -13.046875 C 2.40625 -15.859375 3.007812 -18.242188 4.21875 -20.203125 C 5.425781 -22.160156 6.957031 -23.632812 8.8125 -24.625 C 10.664062 -25.613281 12.582031 -26.109375 14.5625 -26.109375 C 17.90625 -26.109375 20.765625 -24.835938 23.140625 -22.296875 L 23.140625 -23.546875 C 23.140625 -24.179688 23.359375 -24.722656 23.796875 -25.171875 C 24.234375 -25.628906 24.769531 -25.859375 25.40625 -25.859375 C 26.039062 -25.859375 26.582031 -25.628906 27.03125 -25.171875 C 27.488281 -24.722656 27.71875 -24.179688 27.71875 -23.546875 L 27.71875 -1.109375 C 27.71875 3.109375 26.695312 6.351562 24.65625 8.625 C 22.613281 10.90625 19.703125 12.046875 15.921875 12.046875 Z M 15.515625 -4.171875 C 17.085938 -4.171875 18.472656 -4.503906 19.671875 -5.171875 C 20.878906 -5.835938 22.035156 -6.738281 23.140625 -7.875 L 23.140625 -18.21875 C 22.035156 -19.363281 20.878906 -20.269531 19.671875 -20.9375 C 18.472656 -21.601562 17.085938 -21.9375 15.515625 -21.9375 C 13.003906 -21.9375 10.953125 -21.175781 9.359375 -19.65625 C 7.773438 -18.132812 6.984375 -15.929688 6.984375 -13.046875 C 6.984375 -10.171875 7.773438 -7.972656 9.359375 -6.453125 C 10.953125 -4.929688 13.003906 -4.171875 15.515625 -4.171875 Z M 15.515625 -4.171875 "/></g></g></g><g fill="#ffffff" fill-opacity="1"><g transform="translate(117.427986, 57.809104)"><g><path d="M 15.40625 0.5 C 11.320312 0.5 8.132812 -0.660156 5.84375 -2.984375 C 3.550781 -5.304688 2.40625 -8.578125 2.40625 -12.796875 C 2.40625 -15.171875 2.835938 -17.363281 3.703125 -19.375 C 4.578125 -21.382812 5.914062 -23.007812 7.71875 -24.25 C 9.53125 -25.488281 11.757812 -26.109375 14.40625 -26.109375 C 16.882812 -26.109375 19.023438 -25.53125 20.828125 -24.375 C 22.640625 -23.21875 24.015625 -21.675781 24.953125 -19.75 C 25.890625 -17.832031 26.359375 -15.734375 26.359375 -13.453125 C 26.359375 -12.816406 26.144531 -12.28125 25.71875 -11.84375 C 25.300781 -11.40625 24.742188 -11.1875 24.046875 -11.1875 L 7.03125 -11.1875 C 7.300781 -8.851562 8.171875 -7.03125 9.640625 -5.71875 C 11.109375 -4.414062 13.164062 -3.765625 15.8125 -3.765625 C 17.21875 -3.765625 18.445312 -3.894531 19.5 -4.15625 C 20.550781 -4.425781 21.582031 -4.816406 22.59375 -5.328125 C 22.863281 -5.453125 23.164062 -5.515625 23.5 -5.515625 C 24.03125 -5.515625 24.492188 -5.332031 24.890625 -4.96875 C 25.296875 -4.601562 25.5 -4.132812 25.5 -3.5625 C 25.5 -2.820312 25.066406 -2.203125 24.203125 -1.703125 C 22.890625 -0.972656 21.597656 -0.421875 20.328125 -0.046875 C 19.054688 0.316406 17.414062 0.5 15.40625 0.5 Z M 21.84375 -14.90625 C 21.738281 -16.550781 21.304688 -17.925781 20.546875 -19.03125 C 19.796875 -20.132812 18.867188 -20.941406 17.765625 -21.453125 C 16.660156 -21.972656 15.539062 -22.234375 14.40625 -22.234375 C 13.269531 -22.234375 12.148438 -21.972656 11.046875 -21.453125 C 9.941406 -20.941406 9.019531 -20.132812 8.28125 -19.03125 C 7.539062 -17.925781 7.125 -16.550781 7.03125 -14.90625 Z M 21.84375 -14.90625 "/></g></g></g><g fill="#ffffff" fill-opacity="1"><g transform="translate(145.840292, 57.809104)"><g><path d="M 6.21875 0.25 C 5.582031 0.25 5.046875 0.0351562 4.609375 -0.390625 C 4.179688 -0.828125 3.96875 -1.367188 3.96875 -2.015625 L 3.96875 -23.546875 C 3.96875 -24.179688 4.179688 -24.722656 4.609375 -25.171875 C 5.046875 -25.628906 5.582031 -25.859375 6.21875 -25.859375 C 6.851562 -25.859375 7.394531 -25.628906 7.84375 -25.171875 C 8.300781 -24.722656 8.53125 -24.179688 8.53125 -23.546875 L 8.53125 -21.484375 C 9.800781 -22.890625 11.171875 -24.007812 12.640625 -24.84375 C 14.117188 -25.6875 15.863281 -26.109375 17.875 -26.109375 C 19.71875 -26.109375 21.316406 -25.671875 22.671875 -24.796875 C 24.023438 -23.929688 25.0625 -22.742188 25.78125 -21.234375 C 26.5 -19.734375 26.859375 -18.078125 26.859375 -16.265625 L 26.859375 -2.015625 C 26.859375 -1.367188 26.628906 -0.828125 26.171875 -0.390625 C 25.722656 0.0351562 25.179688 0.25 24.546875 0.25 C 23.910156 0.25 23.375 0.0351562 22.9375 -0.390625 C 22.507812 -0.828125 22.296875 -1.367188 22.296875 -2.015625 L 22.296875 -15.765625 C 22.296875 -19.847656 20.453125 -21.890625 16.765625 -21.890625 C 15.085938 -21.890625 13.585938 -21.453125 12.265625 -20.578125 C 10.953125 -19.710938 9.707031 -18.539062 8.53125 -17.0625 L 8.53125 -2.015625 C 8.53125 -1.367188 8.300781 -0.828125 7.84375 -0.390625 C 7.394531 0.0351562 6.851562 0.25 6.21875 0.25 Z M 6.21875 0.25 "/></g></g></g><g fill="#ffffff" fill-opacity="1"><g transform="translate(176.411129, 57.809104)"><g><path d="M 5.171875 0 C 4.265625 0 3.507812 -0.234375 2.90625 -0.703125 C 2.3125 -1.171875 2.015625 -1.820312 2.015625 -2.65625 C 2.015625 -3.425781 2.28125 -4.113281 2.8125 -4.71875 L 17.265625 -21.34375 L 4.5625 -21.34375 C 3.96875 -21.34375 3.46875 -21.539062 3.0625 -21.9375 C 2.65625 -22.34375 2.453125 -22.84375 2.453125 -23.4375 C 2.453125 -24.039062 2.65625 -24.550781 3.0625 -24.96875 C 3.46875 -25.394531 3.96875 -25.609375 4.5625 -25.609375 L 19.78125 -25.609375 C 20.644531 -25.609375 21.34375 -25.335938 21.875 -24.796875 C 22.414062 -24.265625 22.6875 -23.578125 22.6875 -22.734375 C 22.6875 -21.972656 22.453125 -21.304688 21.984375 -20.734375 L 7.9375 -4.265625 L 20.828125 -4.265625 C 21.429688 -4.265625 21.941406 -4.054688 22.359375 -3.640625 C 22.785156 -3.222656 23 -2.710938 23 -2.109375 C 23 -1.503906 22.785156 -1 22.359375 -0.59375 C 21.941406 -0.195312 21.429688 0 20.828125 0 Z M 5.171875 0 "/></g></g></g><g fill="#ffffff" fill-opacity="1"><g transform="translate(201.409948, 57.809104)"><g><path d="M 9.6875 11.796875 C 9.082031 11.796875 8.570312 11.578125 8.15625 11.140625 C 7.738281 10.710938 7.53125 10.195312 7.53125 9.59375 C 7.53125 9.320312 7.582031 9.050781 7.6875 8.78125 L 10.9375 0.40625 L 1.5 -22.59375 C 1.375 -22.925781 1.3125 -23.242188 1.3125 -23.546875 C 1.3125 -24.179688 1.523438 -24.722656 1.953125 -25.171875 C 2.390625 -25.628906 2.925781 -25.859375 3.5625 -25.859375 C 4.03125 -25.859375 4.457031 -25.722656 4.84375 -25.453125 C 5.226562 -25.179688 5.503906 -24.847656 5.671875 -24.453125 L 13.40625 -5.265625 L 21.28125 -24.34375 C 21.71875 -25.351562 22.421875 -25.859375 23.390625 -25.859375 C 24.023438 -25.859375 24.5625 -25.628906 25 -25.171875 C 25.4375 -24.722656 25.65625 -24.179688 25.65625 -23.546875 C 25.65625 -23.242188 25.601562 -22.957031 25.5 -22.6875 L 11.796875 10.234375 C 11.328125 11.273438 10.625 11.796875 9.6875 11.796875 Z M 9.6875 11.796875 "/></g></g></g><g clip-path="url(#1dd9aa8c79)"><g clip-path="url(#fa27074543)"><g clip-path="url(#52b1d40f66)"><g clip-path="url(#98c0cd7809)"><g clip-path="url(#9478f05512)"><path fill="url(#16c0e1da0d)" d="M 75.242188 -2.902344 L -8.9375 22.730469 L 12.671875 93.699219 L 96.851562 68.066406 Z M 75.242188 -2.902344 " fill-rule="nonzero"/></g></g></g></g></g><g clip-path="url(#0e244b5933)"><g clip-path="url(#e0889b196f)"><path fill="url(#4b4d834887)" d="M 226.996094 55.980469 L 226.996094 66.84375 L 237.855469 66.84375 L 237.855469 55.980469 Z M 226.996094 55.980469 " fill-rule="nonzero"/></g></g><g fill="#ffffff" fill-opacity="1"><g transform="translate(242.331595, 63.030571)"><g><path d="M 6.125 -30.828125 C 5.425781 -30.828125 4.820312 -31.078125 4.3125 -31.578125 C 3.8125 -32.078125 3.5625 -32.679688 3.5625 -33.390625 L 3.5625 -33.578125 C 3.5625 -34.285156 3.8125 -34.890625 4.3125 -35.390625 C 4.820312 -35.890625 5.425781 -36.140625 6.125 -36.140625 L 6.421875 -36.140625 C 7.128906 -36.140625 7.734375 -35.890625 8.234375 -35.390625 C 8.734375 -34.890625 8.984375 -34.285156 8.984375 -33.578125 L 8.984375 -33.390625 C 8.984375 -32.679688 8.734375 -32.078125 8.234375 -31.578125 C 7.734375 -31.078125 7.128906 -30.828125 6.421875 -30.828125 Z M 6.21875 0.25 C 5.582031 0.25 5.046875 0.0351562 4.609375 -0.390625 C 4.179688 -0.828125 3.96875 -1.367188 3.96875 -2.015625 L 3.96875 -23.546875 C 3.96875 -24.179688 4.179688 -24.722656 4.609375 -25.171875 C 5.046875 -25.628906 5.582031 -25.859375 6.21875 -25.859375 C 6.894531 -25.859375 7.445312 -25.640625 7.875 -25.203125 C 8.3125 -24.765625 8.53125 -24.210938 8.53125 -23.546875 L 8.53125 -2.015625 C 8.53125 -1.367188 8.300781 -0.828125 7.84375 -0.390625 C 7.394531 0.0351562 6.851562 0.25 6.21875 0.25 Z M 6.21875 0.25 "/></g></g></g><g fill="#ffffff" fill-opacity="1"><g transform="translate(254.830999, 63.030571)"><g><path d="M 15.265625 0.5 C 12.679688 0.5 10.421875 -0.0507812 8.484375 -1.15625 C 6.546875 -2.257812 5.046875 -3.820312 3.984375 -5.84375 C 2.929688 -7.875 2.40625 -10.191406 2.40625 -12.796875 C 2.40625 -15.410156 2.929688 -17.726562 3.984375 -19.75 C 5.046875 -21.78125 6.546875 -23.347656 8.484375 -24.453125 C 10.421875 -25.554688 12.679688 -26.109375 15.265625 -26.109375 C 17.804688 -26.109375 20.046875 -25.554688 21.984375 -24.453125 C 23.929688 -23.347656 25.4375 -21.78125 26.5 -19.75 C 27.570312 -17.726562 28.109375 -15.410156 28.109375 -12.796875 C 28.109375 -10.191406 27.570312 -7.875 26.5 -5.84375 C 25.4375 -3.820312 23.929688 -2.257812 21.984375 -1.15625 C 20.046875 -0.0507812 17.804688 0.5 15.265625 0.5 Z M 15.265625 -3.671875 C 16.628906 -3.671875 17.9375 -3.988281 19.1875 -4.625 C 20.445312 -5.257812 21.488281 -6.257812 22.3125 -7.625 C 23.132812 -9 23.546875 -10.742188 23.546875 -12.859375 C 23.546875 -14.929688 23.132812 -16.648438 22.3125 -18.015625 C 21.488281 -19.390625 20.445312 -20.382812 19.1875 -21 C 17.9375 -21.625 16.628906 -21.9375 15.265625 -21.9375 C 13.859375 -21.9375 12.523438 -21.625 11.265625 -21 C 10.015625 -20.382812 8.988281 -19.390625 8.1875 -18.015625 C 7.382812 -16.648438 6.984375 -14.929688 6.984375 -12.859375 C 6.984375 -10.742188 7.382812 -9 8.1875 -7.625 C 8.988281 -6.257812 10.015625 -5.257812 11.265625 -4.625 C 12.523438 -3.988281 13.859375 -3.671875 15.265625 -3.671875 Z M 15.265625 -3.671875 "/></g></g></g></svg>